<svg xmlns="http://www.w3.org/2000/svg" viewBox="0 0 410 592" version="1.1"><path d="M 284.325 3.160 C 280.379 3.656, 268.904 6.303, 258.825 9.042 C 218.142 20.096, 201.248 24.072, 174.469 28.896 C 110.959 40.336, 97.130 43.985, 73.879 55.441 C 58.242 63.146, 49.632 69.191, 38.947 79.966 C 20.437 98.631, 9.454 119.379, 3.976 146.028 C 0.742 161.761, 1.524 183.881, 6.397 214.500 C 8.410 227.150, 10.457 238.850, 10.944 240.500 C 11.432 242.150, 12.055 250.925, 12.329 260 C 13.266 291.026, 19.746 309.310, 35.831 326.310 C 43.194 334.092, 51.200 339.236, 61.058 342.519 C 65.426 343.974, 69 345.651, 69 346.247 C 69 346.843, 67.696 350.743, 66.103 354.915 C 64.509 359.087, 62.579 364.300, 61.814 366.500 L 60.422 370.500 50.461 370.748 C 39.685 371.016, 36 371.561, 36 372.886 C 36 373.352, 40.275 377.003, 45.500 381 C 50.725 384.997, 55.009 388.769, 55.020 389.383 C 55.031 389.997, 53.606 395.112, 51.853 400.749 C 50.100 406.387, 48.939 411.272, 49.273 411.607 C 49.918 412.251, 57.037 408.542, 65.783 403.005 L 71.067 399.659 73.783 401.824 C 80.124 406.878, 84.862 409.927, 87.336 410.548 C 89.599 411.116, 90.275 412.237, 92.049 418.356 C 96.118 432.390, 97.283 435.603, 101.128 443.390 C 106.608 454.487, 112.998 463.187, 122.674 472.726 C 132.410 482.323, 140.739 488.154, 158 497.456 C 177.384 507.903, 184.593 513.670, 196.182 528 C 204.570 538.372, 212 556.353, 212 566.280 L 212 571.349 214.559 568.945 C 215.966 567.623, 218.725 563.288, 220.690 559.313 C 224.066 552.482, 224.237 551.657, 223.809 544.267 C 223.446 537.999, 222.710 535.166, 220.093 529.975 C 213.670 517.234, 199.261 501.016, 185.220 490.722 C 181.765 488.189, 173.191 483.194, 166.166 479.622 C 146.908 469.829, 137.777 462.426, 126.549 447.500 C 116.123 433.640, 110.435 420.596, 107.611 404.074 C 103.615 380.690, 107.284 359.608, 122.765 317.007 C 126.861 305.736, 130.958 292.916, 131.870 288.518 C 133.108 282.546, 133.967 280.437, 135.264 280.188 C 136.746 279.902, 137 280.677, 137 285.479 C 137 294.474, 134.220 304.666, 128.471 316.750 C 125.527 322.938, 123.429 327.985, 123.809 327.967 C 124.189 327.948, 128.441 322.886, 133.258 316.717 C 154.103 290.019, 159.867 286.546, 146.585 308.685 C 128.094 339.506, 121.028 355.185, 119.020 369.857 C 116.467 388.503, 122.880 408.654, 138.704 431.710 C 142.400 437.095, 146.893 444.200, 148.689 447.500 C 152.608 454.700, 152.750 453.576, 149.970 437.349 C 144.714 406.664, 147.325 380.325, 157.687 359.500 C 162.280 350.268, 167.378 343.624, 177.913 333.142 C 182.689 328.389, 188.263 322.507, 190.299 320.070 C 193.902 315.757, 194 315.711, 194 318.353 C 194 322.760, 189.596 330.183, 181.411 339.569 C 168.521 354.353, 161.686 366.901, 157.471 383.517 C 152.767 402.060, 153.266 418.946, 159.028 436.211 C 162.834 447.614, 167.152 456.036, 176.171 469.646 L 183.557 480.791 183.558 464.646 C 183.558 448.652, 183.602 448.331, 188.237 430.500 C 193.136 411.649, 195.236 404.956, 198.985 396.250 C 201.482 390.453, 203 389.520, 203 393.782 C 203 397.503, 201.283 403.445, 194.701 422.500 C 188.005 441.887, 186.455 450.848, 187.945 461.560 C 189.904 475.641, 195.878 487.127, 207.749 499.630 C 217.754 510.167, 222.180 517.158, 225.523 527.697 C 234.098 554.738, 243.230 567.884, 263.370 582.176 C 276.193 591.277, 281.283 592.561, 292.068 589.417 C 317.136 582.110, 347.335 551.761, 356.368 524.799 C 358.165 519.436, 364 485.018, 364 479.784 C 364 475.124, 360.686 462.446, 357.459 454.758 C 356.014 451.316, 354.352 447.344, 353.765 445.931 C 352.785 443.570, 353.128 442.964, 358.008 438.431 C 372.531 424.942, 381.629 401.670, 379.032 384.652 C 377.831 376.778, 372.578 364.548, 368.944 361.163 C 367.680 359.985, 366.838 358.904, 367.073 358.761 C 367.308 358.617, 369.691 357.396, 372.370 356.047 C 381.214 351.594, 384.647 343.512, 381.101 335.495 C 379.945 332.883, 379 330.354, 379 329.875 C 379 329.396, 380.577 326.809, 382.505 324.126 C 390.738 312.667, 400.514 286.587, 401.669 273 C 402.153 267.317, 401.945 266.151, 400.017 263.722 C 397.673 260.770, 391.267 257.054, 388.290 256.919 C 387.017 256.861, 387.288 256.488, 389.227 255.628 C 393.502 253.732, 398 248.897, 398 246.198 C 398 243.286, 392.074 237.510, 387.559 236.020 C 383.834 234.790, 381.518 229.555, 376.934 212 C 372.639 195.552, 371.036 185.334, 370.427 170.509 L 369.892 157.500 374.696 154.423 C 387.800 146.030, 403.639 119.467, 407.636 99.179 C 412.146 76.290, 402.358 49.725, 382.606 31.248 C 365.745 15.476, 346.361 6.521, 321.633 3.082 C 312.599 1.825, 294.642 1.863, 284.325 3.160 M 273.250 15.706 C 269.564 16.416, 270.697 18, 274.891 18 C 281.314 18, 297.860 22.824, 305.932 27.051 C 320.548 34.704, 335.111 49.070, 342.493 63.119 C 349.057 75.610, 350.188 80.083, 350.745 95.750 C 351.024 103.587, 351.667 110, 352.175 110 C 352.682 110, 353.966 108.088, 355.027 105.750 C 357.455 100.400, 357.686 86.114, 355.483 77.460 C 353.381 69.204, 345.237 52.764, 339.466 45.131 C 329.371 31.777, 313.359 20.800, 298.391 16.972 C 291.228 15.140, 279.305 14.540, 273.250 15.706 M 358.035 28.409 C 358.016 28.909, 360.648 33.409, 363.885 38.409 C 379.019 61.785, 382.533 84.866, 373.948 104.500 C 371.220 110.738, 368.505 113.667, 370.980 107.702 C 374.767 98.572, 376.227 90.915, 375.785 82.500 C 375.553 78.100, 374.727 73.375, 373.947 72 C 372.638 69.690, 372.475 70.361, 371.808 80.815 C 371.411 87.038, 370.139 95.588, 368.982 99.815 C 366.455 109.049, 359.360 124.369, 354.436 131.222 C 352.471 133.958, 351.136 136.470, 351.471 136.804 C 352.733 138.067, 359.479 133.306, 366.265 126.364 C 380.810 111.483, 384.272 103.433, 384.265 84.500 C 384.262 73.848, 383.920 71.457, 381.227 63.220 C 379.558 58.116, 376.314 50.778, 374.018 46.913 C 370.089 40.301, 358.111 26.432, 358.035 28.409 M 177 38.599 C 154.264 41.614, 115.111 50.214, 97.974 55.955 C 60.724 68.435, 30.357 98.084, 18.428 133.619 C 12.532 151.183, 11.175 165.955, 13.472 187.553 C 15.031 202.207, 16.005 206.328, 17.547 204.787 C 17.866 204.468, 18.976 198.336, 20.014 191.161 C 21.109 183.591, 22.726 176.498, 23.866 174.262 C 29.396 163.423, 47.313 152.960, 71.500 146.446 C 92.383 140.823, 96 139.680, 96 138.706 C 96 137.085, 74.424 138.640, 65.825 140.880 C 48.935 145.281, 36.240 152.314, 24.815 163.600 C 21.617 166.759, 19 168.758, 19 168.042 C 19 165.025, 24.393 143.027, 26.724 136.540 C 34.905 113.763, 51.159 91.702, 69.072 79.060 C 83.142 69.130, 96.841 63.232, 120.018 57.127 C 153.971 48.184, 170.718 45.557, 193.500 45.601 C 209.733 45.632, 212.460 45.893, 221.277 48.267 C 232.897 51.395, 247.772 58.234, 256.501 64.464 C 264.324 70.046, 274.539 81.070, 281.301 91.227 C 289.937 104.199, 289.895 96.695, 281.232 79 C 275.111 66.496, 263.320 54.152, 252.154 48.559 C 242.455 43.699, 229.076 39.395, 219.554 38.071 C 209.288 36.643, 189.934 36.883, 177 38.599 M 311 45.107 C 311 45.755, 314.194 50.977, 318.097 56.711 C 332.372 77.682, 336.583 90.525, 335.653 110.250 C 335.326 117.181, 335.478 122, 336.024 122 C 339.960 122, 342.349 102.580, 340.044 89.314 C 337.821 76.523, 330.988 63.712, 319.934 51.619 C 314.377 45.538, 311 43.077, 311 45.107 M 289 47.540 C 289 47.837, 293.524 54.024, 299.053 61.290 C 312.742 79.277, 319.952 94.585, 320.015 105.799 C 320.024 107.285, 320.474 109.175, 321.015 110 C 322.955 112.955, 324.117 108.870, 323.718 100.500 C 323.128 88.118, 317.936 76.990, 305.256 60.930 C 298.363 52.200, 289 44.487, 289 47.540 M 324.033 47.848 C 324.015 48.589, 326.551 53.314, 329.669 58.348 C 345.363 83.683, 347.394 97.465, 339.444 124.664 C 338.981 126.250, 339.380 127.133, 340.937 127.966 C 342.891 129.012, 343.259 128.676, 345.485 123.802 C 348.847 116.444, 350.487 102.161, 349.129 92.072 C 347.893 82.889, 344.532 73.171, 339.877 65.323 C 336.136 59.015, 324.086 45.724, 324.033 47.848 M 279.732 54.271 C 280.794 56.070, 285.676 62.604, 290.581 68.791 C 301.223 82.213, 306.435 90.533, 308.695 97.702 C 310.934 104.805, 312.413 104.492, 311.739 97.059 C 311.120 90.229, 308.011 82.875, 301.922 73.832 C 293.435 61.229, 273.435 43.598, 279.732 54.271 M 388.484 55.500 C 392.219 66.973, 393.138 86.963, 390.504 99.399 C 387.646 112.889, 379.459 125.656, 366.072 137.500 C 361.720 141.350, 358.123 144.838, 358.080 145.250 C 357.901 146.932, 362.812 145.802, 367.591 143.061 C 373.897 139.444, 384.258 128.370, 389.276 119.885 C 397.180 106.517, 400.480 89.501, 397.689 76.500 C 395.754 67.487, 392.431 58.697, 389.860 55.791 C 388.036 53.730, 387.898 53.701, 388.484 55.500 M 191 56.084 C 176.682 57.662, 176.012 58.832, 189.374 58.921 C 197.833 58.977, 204.817 59.723, 213.655 61.512 C 240.966 67.042, 256.405 75.284, 269.648 91.407 C 275.388 98.395, 276.702 96.998, 272.489 88.388 C 267.053 77.277, 253.970 66.103, 240.500 61.067 C 228.003 56.395, 207.187 54.299, 191 56.084 M 181 63.715 C 181 64.264, 185.162 65.022, 190.250 65.400 C 217.112 67.395, 237.944 75.513, 252.778 89.767 C 256.365 93.213, 259.500 95.833, 259.745 95.588 C 260.936 94.397, 258.493 88.863, 254.613 83.959 C 247.962 75.556, 235.420 68.876, 220 65.527 C 211.141 63.603, 181 62.202, 181 63.715 M 138.670 90.120 C 122.929 91.636, 108.656 95.451, 97.070 101.241 C 91.281 104.133, 86.396 107.027, 86.215 107.671 C 86.001 108.433, 88.960 107.993, 94.693 106.411 C 122.260 98.799, 153.098 95.327, 177 97.145 C 198.660 98.792, 199.283 99.565, 179.500 100.249 C 161.989 100.854, 146.581 102.872, 130 106.734 C 123.493 108.249, 122.963 108.527, 126 108.829 C 127.925 109.020, 136.700 108.697, 145.500 108.111 C 154.300 107.525, 173.875 106.753, 189 106.396 C 204.125 106.039, 217.105 105.425, 217.845 105.031 C 218.646 104.604, 216.715 103.788, 213.071 103.015 C 209.705 102.301, 207.149 101.518, 207.391 101.275 C 207.634 101.033, 212.033 101.359, 217.166 102.001 C 222.300 102.642, 228.300 103.002, 230.500 102.800 L 234.500 102.433 227 98.781 C 222.404 96.542, 215.628 94.349, 209.500 93.116 C 191.204 89.435, 159.653 88.100, 138.670 90.120 M 257.389 107.454 C 249.361 109.246, 245.412 111.379, 234 120.088 C 228.775 124.076, 221.261 128.840, 217.301 130.676 C 200.835 138.310, 173.937 141.912, 118 143.976 C 90.663 144.984, 83.018 146.132, 79.362 149.775 C 77.722 151.409, 78.023 151.517, 85.065 151.819 C 111.236 152.940, 192.159 148.094, 207.791 144.469 C 219.658 141.717, 229.618 136.227, 238.501 127.543 C 250.870 115.452, 259.560 112.536, 276.043 114.946 C 291.654 117.229, 308.548 124.484, 327.300 136.958 C 337.980 144.063, 345.210 147.935, 347.872 147.978 C 350.004 148.012, 347.898 145.839, 335.556 135.271 C 318.904 121.012, 305.171 113.494, 287.687 109.065 C 277.425 106.466, 264.818 105.795, 257.389 107.454 M 143.500 109.933 L 135.500 110.500 154 112.818 C 173.940 115.317, 193.794 115.780, 205.500 114.021 C 214.540 112.662, 224.938 110.395, 225.721 109.613 C 226.470 108.863, 154.654 109.143, 143.500 109.933 M 269.205 142.826 C 263.094 145.016, 257.269 149.400, 254.741 153.713 C 253.684 155.518, 252.397 161.456, 251.513 168.607 C 250.300 178.427, 249.424 181.756, 246.489 187.705 C 239.709 201.450, 230.138 209.626, 211.029 217.994 C 198.159 223.630, 191.716 228.877, 189.797 235.285 L 188.656 239.091 175.677 238.796 C 166.841 238.594, 162.576 238.853, 162.314 239.607 C 162.053 240.357, 166.055 240.933, 174.714 241.392 C 192.219 242.319, 248.087 244.981, 250.275 244.991 C 251.253 244.996, 252.476 243.877, 253 242.500 C 253.785 240.435, 254.616 240, 257.772 240 C 260.944 240, 262.266 239.299, 265.547 235.877 C 271.716 229.442, 276.715 227.639, 288 227.778 C 298.307 227.905, 308.757 230.158, 319.242 234.514 C 328.613 238.406, 328.780 238.425, 325 235.150 C 314.331 225.906, 294.154 217.155, 278.678 215.059 C 266.882 213.462, 261.553 213.808, 249.511 216.953 C 236.785 220.276, 237.329 219.434, 253 211.549 C 274.399 200.781, 288.782 197.834, 300.500 201.817 C 303.800 202.939, 316.288 208.667, 328.250 214.547 C 349.327 224.906, 350 225.330, 350 228.218 C 350 233.505, 347.284 237.531, 341.698 240.523 C 338.839 242.054, 336.322 243.453, 336.104 243.633 C 335.886 243.812, 337.461 245.914, 339.604 248.303 C 341.747 250.692, 345.210 254.751, 347.300 257.324 C 351.282 262.225, 354.640 263.344, 356.963 260.545 C 357.935 259.373, 357.667 258.430, 355.585 255.701 C 354.054 253.693, 353 251.011, 353 249.122 C 353 245.956, 357.337 236.092, 359.274 234.853 C 359.830 234.497, 362.808 235.076, 365.893 236.140 C 368.977 237.204, 372.625 237.946, 374 237.787 C 376.990 237.444, 377.014 235.917, 374.151 228 C 373.057 224.975, 370.723 217.100, 368.964 210.500 C 366.040 199.532, 365.722 196.844, 365.264 179.254 L 364.763 160.008 358.132 160.605 C 349.181 161.410, 341.450 159.464, 324.088 152.038 C 305.335 144.016, 297.779 141.959, 285 141.393 C 276.388 141.012, 273.548 141.270, 269.205 142.826 M 210 157.665 C 194.654 162.714, 185.610 165.005, 173.222 166.979 C 166.225 168.094, 158.925 169.320, 157 169.703 C 155.075 170.086, 136.400 170.439, 115.500 170.487 C 79.258 170.571, 77.130 170.679, 69.500 172.828 C 56.756 176.416, 36 187.094, 36 190.061 C 36 190.592, 37.688 190.289, 39.750 189.388 C 49.218 185.250, 65.593 179.958, 73.170 178.588 C 83.807 176.664, 94.387 176.404, 120.500 177.427 C 157.409 178.873, 184.266 174.447, 206.500 163.255 C 214.099 159.430, 220.656 154.991, 218.500 155.132 C 217.950 155.168, 214.125 156.308, 210 157.665 M 71 156.974 C 59.238 159.265, 48.157 164.589, 39.754 171.985 C 34.982 176.185, 30.441 181.775, 31.191 182.524 C 31.416 182.749, 33.828 181.335, 36.550 179.380 C 45.975 172.615, 61.812 165.687, 72.992 163.437 C 74.913 163.051, 82.011 162.232, 88.767 161.617 C 101.118 160.494, 104.056 159.347, 98.500 157.819 C 93.864 156.543, 76.024 155.996, 71 156.974 M 189.500 174.064 C 160.510 179.593, 152.752 180.296, 122.673 180.122 C 98.046 179.980, 93.886 180.189, 86.501 181.944 C 76.719 184.267, 62.214 189.931, 56.697 193.582 C 49.960 198.040, 50.067 198.028, 79.500 190.963 C 95.821 187.045, 102.364 186.570, 120.209 188.008 C 132.017 188.959, 138.655 188.977, 149.353 188.085 C 166.287 186.674, 183.800 183.757, 192.212 180.946 C 198.740 178.764, 208 173.456, 208 171.896 C 208 170.647, 206.488 170.824, 189.500 174.064 M 210 180.019 C 207.303 181.796, 192.748 186.089, 180.500 188.720 C 169.251 191.137, 166.121 191.341, 130.500 191.988 C 93.135 192.666, 89.815 192.976, 83.192 196.401 C 77.514 199.337, 79.356 200.072, 90.750 199.419 C 96.729 199.076, 106.826 199.322, 113.500 199.973 C 145.031 203.050, 147.799 202.829, 175.221 195.049 C 197.400 188.757, 205.919 185.565, 210.118 181.974 C 213.316 179.238, 213.235 177.888, 210 180.019 M 221.199 183.509 C 215.563 187.024, 205.370 190.461, 174 199.422 C 149.711 206.360, 145.439 206.956, 119.750 206.980 C 91.096 207.008, 92.213 208.990, 122 210.973 C 137.275 211.990, 148.858 210.847, 161.853 207.041 C 167.159 205.487, 178.628 202.130, 187.340 199.579 C 206.423 193.994, 213.131 191.348, 220.343 186.561 C 229.876 180.233, 230.602 177.646, 221.199 183.509 M 228 189.500 C 221.974 193.607, 210.961 197.744, 197.487 200.964 C 190.344 202.671, 180.246 205.430, 175.047 207.095 C 159.414 212.102, 144.446 214.869, 126.385 216.093 C 98.291 217.995, 103.405 220.634, 133.352 219.687 C 153.346 219.055, 155.936 218.620, 173.756 212.901 C 180.496 210.738, 189.046 208.282, 192.756 207.443 C 209.659 203.618, 223.028 197.628, 229.535 190.965 C 233.876 186.519, 233.250 185.922, 228 189.500 M 47.803 210.399 C 42.378 211.860, 36.629 215.438, 31.557 220.510 C 15.030 237.036, 16.454 281.292, 34.379 308.241 C 44.367 323.256, 63.425 336.403, 77.104 337.714 C 88.140 338.772, 95.734 333.866, 98.866 323.656 C 102.234 312.673, 106.095 294.910, 109.332 275.499 L 112.500 256.500 135.920 256.231 C 158.347 255.974, 162 255.504, 162 252.878 C 162 252.395, 151.237 252, 138.082 252 C 124.927 252, 113.441 251.723, 112.559 251.384 C 111.676 251.045, 109.417 247.443, 107.539 243.379 C 103.462 234.555, 98.735 228.550, 91.657 223.206 C 75.968 211.361, 60.745 206.915, 47.803 210.399 M 47.303 219.645 C 41.665 221.642, 35.380 227.952, 32.164 234.845 C 29.817 239.874, 29.485 241.962, 29.165 253.717 C 28.705 270.604, 30.513 280.204, 36.466 292.500 C 43.042 306.081, 56.787 320, 63.624 320 C 66.866 320, 69 317.365, 69 313.363 C 69 308.088, 67.633 306.442, 59.864 302.359 C 49.001 296.651, 43.839 288.997, 39.426 272.055 C 38.642 269.043, 38.010 262.287, 38.022 257.040 C 38.045 246.842, 39.789 241.041, 44.312 236.119 C 47.222 232.951, 57.741 227.996, 61.500 228.023 C 68.019 228.069, 76.593 234.113, 78.936 240.315 C 79.521 241.863, 79.996 245.688, 79.990 248.815 C 79.980 254.502, 79.237 256.484, 72.433 268.962 C 69.628 274.106, 69.356 279.576, 71.610 285.500 C 74.469 293.017, 74.494 292.817, 70.643 293.539 C 65.747 294.458, 60.320 291.624, 56.519 286.164 C 53.888 282.385, 53.500 280.962, 53.500 275.086 C 53.500 269.277, 53.879 267.847, 56.241 264.751 C 57.749 262.774, 62.249 259.191, 66.241 256.788 C 71.524 253.608, 73.998 251.410, 75.330 248.713 C 79.598 240.076, 72.246 231, 60.982 231 C 56.256 231, 52.531 232.706, 49 236.488 L 46.500 239.165 51 236.595 C 56.703 233.337, 60.387 233.296, 63.545 236.455 C 67.249 240.158, 66.737 243.307, 61.798 247.194 C 50.597 256.007, 46 263.233, 46 272.023 C 46 280.279, 51.817 290.637, 58.730 294.688 C 62.338 296.802, 63.876 297.140, 67.550 296.624 C 82.436 294.536, 80.492 294.211, 85.457 299.618 C 89.629 304.162, 90.047 304.381, 91.595 302.834 C 93.899 300.529, 92.786 295.385, 88.789 289.868 C 86.508 286.721, 85.512 284.103, 85.223 280.500 C 84.857 275.934, 85.155 275.075, 88.661 270.601 L 92.500 265.702 92.484 256.101 C 92.463 243.190, 89.996 236.916, 81.603 228.421 C 77.069 223.832, 74.012 221.699, 69.712 220.122 C 62.905 217.626, 53.563 217.427, 47.303 219.645 M 273.407 232.893 C 268.670 235.782, 263.002 243.237, 262.985 246.603 C 262.955 252.256, 262.554 252.381, 246.842 251.665 C 238.954 251.306, 216.829 249.878, 197.675 248.493 C 178.521 247.108, 162.434 246.232, 161.925 246.546 C 161.416 246.861, 161 247.924, 161 248.909 C 161 250.453, 162.264 250.790, 170.154 251.350 C 175.188 251.708, 183.176 252.007, 187.904 252.015 C 192.632 252.024, 197.088 252.403, 197.806 252.859 C 198.684 253.416, 199.363 257.594, 199.876 265.594 C 200.825 280.405, 202.487 284.431, 211.700 294.236 C 220.624 303.736, 224.167 308.367, 227.369 314.717 C 231.497 322.902, 239.976 330.346, 250.702 335.202 C 257.473 338.268, 270.854 338.215, 280.250 335.085 C 283.962 333.849, 287 332.481, 287 332.046 C 287 331.611, 285.141 330.958, 282.869 330.595 C 271.079 328.710, 255.441 315.926, 251.224 304.727 C 247.843 295.747, 246.689 283.483, 248.005 270.519 C 249.534 255.458, 249.284 256, 254.699 256 L 259.263 256 258.626 260.250 C 256.340 275.486, 255.999 281.692, 257.036 289.261 C 259.183 304.946, 265.731 317.258, 275.370 323.736 C 281.830 328.078, 286.939 329.300, 296.545 328.799 C 318.754 327.642, 337.224 308.366, 344.982 278.250 C 345.909 274.654, 346.468 274, 348.615 274 C 350.110 274, 352.404 275.251, 354.196 277.042 L 357.238 280.084 356.575 277.443 C 356.014 275.207, 356.647 274.069, 360.706 270.018 C 366.761 263.976, 373.274 262.236, 383.138 264.025 C 397.478 266.625, 399.396 271.070, 393.865 288.893 C 390.633 299.309, 379.825 318.999, 375.352 322.623 C 373.724 323.941, 374.595 327, 376.597 327 C 378.443 327, 384.308 318.963, 388.005 311.367 C 392.585 301.959, 399 281.805, 399.658 274.761 C 400.200 268.959, 400.034 268.194, 397.610 265.313 C 394.097 261.139, 387.439 258.995, 378.072 259.022 C 369.380 259.047, 364.162 260.979, 359.563 265.874 C 357.741 267.813, 355.653 268.995, 354.063 268.986 C 348.518 268.957, 347.263 267.986, 345.099 262.050 C 340.989 250.780, 331.592 242.020, 318.146 236.927 C 303.155 231.250, 279.588 229.125, 273.407 232.893 M 277.500 236.662 C 268.555 241.377, 264.081 250.685, 261.950 269.009 C 258.913 295.139, 266.452 314.282, 282.714 321.726 C 299.982 329.632, 324.419 316.294, 335.994 292.645 C 342.885 278.565, 344.568 268.021, 341.125 260.500 C 336.947 251.377, 322.255 241.843, 305.020 237.071 C 295.737 234.501, 281.987 234.296, 277.500 236.662 M 347 278.044 C 347 280.596, 339.440 299.065, 336.171 304.500 C 334.185 307.800, 329.290 314.001, 325.292 318.280 C 321.294 322.559, 317.738 327.196, 317.390 328.584 C 315.793 334.946, 320.039 343.843, 327.121 348.973 C 334.978 354.665, 346.455 357.444, 352.434 355.102 C 355.445 353.923, 353.100 353.052, 341.289 350.963 C 333.515 349.587, 330.074 348.511, 328.567 346.981 C 326.527 344.912, 326.526 344.866, 328.441 343.442 C 331.271 341.340, 340.310 341.602, 344.790 343.918 C 346.830 344.972, 350.944 347.672, 353.931 349.918 C 358.552 353.392, 360.087 354, 364.230 354 C 375.142 354, 383.010 344.695, 378.872 336.684 C 378.251 335.483, 374.575 329.131, 370.702 322.570 C 366.457 315.377, 362.151 306.355, 359.860 299.850 C 355.136 286.440, 350.437 277, 348.486 277 C 347.669 277, 347 277.470, 347 278.044 M 357.403 282.500 C 360.873 296.418, 364.884 308.545, 364.970 305.380 C 365.017 303.649, 358.971 283.743, 357.876 282.025 C 357.100 280.807, 357.005 280.902, 357.403 282.500 M 157.792 303.979 C 139.678 323.827, 128.850 344.465, 126.072 364.440 C 123.707 381.444, 125.596 389.591, 128.270 373.920 C 131.493 355.031, 138.993 337.395, 151.047 320.359 C 163.946 302.129, 165.179 300.166, 164.838 298.396 C 164.584 297.081, 162.791 298.502, 157.792 303.979 M 161.588 316.152 C 155.072 323.493, 148.061 331.975, 146.008 335 C 137.722 347.204, 132.924 359.803, 133.074 368.960 L 133.149 373.500 135.429 367 C 140.199 353.400, 146.231 343.357, 159.454 327 C 167.395 317.177, 174.444 305.831, 173.802 303.905 C 173.600 303.299, 168.104 308.810, 161.588 316.152 M 173.885 319.750 C 158.632 335.384, 148.957 347.693, 144.863 356.674 C 140.292 366.702, 137.988 376.519, 138.102 385.480 C 138.192 392.548, 138.321 393.085, 139.191 390 C 146.859 362.809, 152.376 352.423, 170 332 C 176.771 324.153, 184.776 313.375, 188.382 307.250 C 190.689 303.331, 185.748 307.592, 173.885 319.750 M 209.437 328.799 C 195.422 348.100, 188.464 362.451, 184.856 379.500 C 182.624 390.050, 181.108 413.670, 182.727 412.669 C 183.303 412.313, 184.068 410.449, 184.429 408.527 C 187.699 391.096, 198.204 360.851, 208.677 338.717 C 212.784 330.036, 215.971 322.414, 215.759 321.778 C 215.548 321.143, 212.703 324.302, 209.437 328.799 M 200.243 329.400 C 187.259 343.279, 180.685 354.932, 176.445 371.579 C 173.473 383.246, 172.452 394.057, 173.445 403.328 C 174.207 410.451, 175.998 412.496, 176.003 406.250 C 176.018 388.395, 186.926 357.456, 202.008 332.486 C 204.869 327.750, 207 323.667, 206.744 323.411 C 206.489 323.155, 203.563 325.850, 200.243 329.400 M 225.399 334.587 C 217.304 338.861, 213.336 343.482, 209.587 353 C 205.004 364.636, 205.877 375.890, 212.432 389.695 C 219.126 403.791, 229.830 412, 241.515 412 C 256.629 412, 277.485 400.864, 294 383.977 C 306.562 371.131, 316.966 359.633, 316.474 359.140 C 315.447 358.113, 304.901 362.202, 299.906 365.563 C 297.054 367.483, 294.513 368.846, 294.260 368.593 C 293.675 368.008, 304.674 356.922, 308 354.743 L 310.500 353.105 307.946 353.052 C 303.714 352.966, 295.325 357.844, 290.522 363.187 C 285.789 368.451, 284.851 368.790, 287.677 364.215 C 290.596 359.489, 297.355 352.910, 301.500 350.760 C 306.609 348.109, 304.605 347.392, 297.698 349.399 C 290.256 351.563, 286.081 356.048, 279.462 368.987 C 272.988 381.644, 267.235 387.646, 258.414 390.946 C 240.720 397.567, 225.076 388.935, 218.976 369.187 C 214.894 355.972, 217.023 346.646, 226.267 337.250 C 229.107 334.363, 231.177 332, 230.865 332 C 230.553 332, 228.093 333.164, 225.399 334.587 M 237.952 341.134 C 231.971 344.553, 229.552 349.201, 229.150 358.055 C 228.569 370.820, 233.432 378.219, 244.614 381.584 C 257.710 385.526, 268.818 379.803, 275.620 365.609 C 277.459 361.771, 278.714 358.380, 278.407 358.074 C 278.101 357.767, 277.374 358.413, 276.792 359.508 C 274.448 363.922, 263.240 373.840, 259.387 374.909 C 244.681 378.993, 233 370.527, 233 355.785 C 233 351.024, 234.155 348.631, 238.803 343.768 C 243.055 339.320, 242.754 338.390, 237.952 341.134 M 318.500 365.681 C 313.910 368.132, 308.500 372.575, 297.006 383.337 C 277.063 402.009, 265.203 409.566, 251.949 412.046 C 242.297 413.853, 241.772 414.445, 249.500 414.805 C 262.199 415.398, 274.505 411.589, 285.390 403.697 C 296.305 395.784, 324 368.008, 324 364.974 C 324 363.575, 321.954 363.838, 318.500 365.681 M 212.070 368.212 C 212.032 369.154, 212.944 372.447, 214.097 375.530 C 217.953 385.836, 232.665 398.859, 239.218 397.767 C 241.058 397.461, 240.386 396.876, 235.747 394.747 C 225.733 390.152, 217.493 381.026, 213.450 370.055 C 212.730 368.100, 212.109 367.271, 212.070 368.212 M 327.219 370.956 C 321.977 374.754, 285.836 409.169, 286.447 409.781 C 287.293 410.627, 295.599 405.175, 304.709 397.794 C 309.660 393.782, 317.039 388.098, 321.108 385.162 C 328.383 379.913, 333.052 374.687, 334.434 370.250 C 335.454 366.976, 332.285 367.287, 327.219 370.956 M 265.500 395.546 C 252.369 403.700, 233.833 404.242, 222.500 396.802 C 220.621 395.568, 221.312 396.546, 224.347 399.416 C 235.628 410.086, 252.623 408.965, 266.500 396.637 C 271.223 392.441, 270.961 392.155, 265.500 395.546 M 333.548 402.782 C 331.099 406.477, 327.485 410.767, 325.518 412.317 C 318.016 418.222, 301.862 424.237, 289.857 425.596 C 286.611 425.963, 283.668 426.728, 283.317 427.295 C 282.252 429.020, 287.733 432.866, 293.745 434.614 C 297.882 435.817, 301.463 436.106, 306.960 435.680 C 324.162 434.347, 335.883 427.786, 336.100 419.368 C 336.155 417.240, 336.531 414.375, 336.936 413 C 337.521 411.014, 338.149 412.599, 339.993 420.711 C 343.160 434.649, 347.799 442.613, 349.359 436.791 C 351.029 430.558, 349.985 421.058, 346.614 411.800 C 340.039 393.744, 339.695 393.507, 333.548 402.782 M 249.001 442.250 C 243.201 449.372, 237.640 459.943, 235.456 468 C 233.602 474.840, 232.493 491.708, 233.693 494.809 C 234.430 496.709, 235.704 493.618, 240.907 477.315 C 244.793 465.137, 249.200 453.661, 252.353 447.507 C 255.173 442.003, 257.634 437.163, 257.823 436.750 C 258.012 436.337, 257.250 436, 256.129 436 C 254.838 436, 252.224 438.293, 249.001 442.250 M 259.174 443.750 C 249.839 457.511, 245.801 468.442, 242.994 487.541 C 239.467 511.541, 240.581 524.782, 247.350 539.332 C 252.017 549.363, 257.726 556.186, 264.118 559.372 C 269.309 561.958, 274.400 562.780, 275.383 561.189 C 275.659 560.743, 273.183 557.481, 269.882 553.939 C 266.581 550.398, 262.818 545.700, 261.519 543.500 C 254.751 532.036, 254.382 518.124, 260.349 499.337 C 264.522 486.197, 267.731 470.351, 268.656 458.308 C 269.503 447.292, 268.021 447.813, 264.419 459.798 C 262.980 464.584, 261.168 470.300, 260.393 472.500 C 259.013 476.414, 258.993 476.323, 259.458 468.272 C 259.720 463.746, 260.667 457.221, 261.563 453.772 C 263.812 445.114, 264.860 438, 263.888 438 C 263.441 438, 261.319 440.587, 259.174 443.750 M 331.422 453.638 L 332.015 459.500 330.097 455.364 C 326.414 447.423, 325.595 448.635, 326.568 460.592 C 327.056 466.592, 327.447 479.825, 327.438 490 C 327.421 508.275, 327.381 508.621, 324.090 518.500 C 317.508 538.258, 309.270 551.725, 296.173 564.140 C 291.321 568.738, 284.471 574.188, 280.949 576.250 C 275.681 579.335, 275.010 580, 277.167 580 C 280.985 580, 292.574 576.237, 299.500 572.748 C 309.279 567.823, 316.220 562.624, 323.678 554.637 C 335.940 541.508, 341.882 525.493, 342.095 505 C 342.240 491.100, 343.887 496.833, 344.180 512.258 C 344.293 518.174, 344.700 522.674, 345.086 522.258 C 346.279 520.968, 348.015 511.112, 348.636 502.100 C 349.439 490.467, 347.928 483.405, 342.091 471.500 C 339.395 466, 336.181 458.674, 334.949 455.219 C 331.972 446.869, 330.678 446.289, 331.422 453.638 M 271.623 458.105 C 271.355 459.422, 270.601 464.768, 269.948 469.984 C 269.295 475.200, 267.711 483.802, 266.428 489.099 C 262.231 506.432, 261.273 521.768, 264.060 527 C 264.682 528.167, 265.107 527.848, 265.974 525.567 C 268.005 520.226, 272.868 499.630, 274.029 491.450 C 275.455 481.406, 274.976 458.570, 273.305 456.903 C 272.380 455.979, 272.001 456.251, 271.623 458.105 M 283.164 474.501 C 283.349 480.827, 283.397 486.002, 283.270 486.001 C 283.144 486.001, 282.100 484.156, 280.951 481.903 C 279.801 479.650, 278.636 478.030, 278.362 478.304 C 278.089 478.578, 277.441 483.306, 276.923 488.810 C 276.405 494.314, 274.860 504.321, 273.491 511.046 C 271.078 522.891, 270.182 536, 271.785 536 C 272.216 536, 273.679 533.032, 275.035 529.405 C 276.391 525.778, 277.783 522.635, 278.129 522.421 C 278.475 522.207, 278.534 526.862, 278.261 532.766 C 277.772 543.318, 279.206 553.296, 280.936 551.377 C 281.371 550.895, 282.758 542.400, 284.019 532.500 C 285.279 522.600, 286.645 514.118, 287.054 513.651 C 288.305 512.223, 289.286 531.403, 288.792 547.642 C 288.536 556.089, 288.470 563, 288.646 563 C 289.483 563, 294.059 552.618, 296.580 545 C 299.068 537.484, 299.399 534.995, 299.441 523.500 C 299.489 510.613, 299.454 510.409, 295.399 500 C 292.024 491.338, 288.456 478.868, 285.457 465.250 C 285.185 464.012, 284.482 463, 283.895 463 C 283.181 463, 282.939 466.809, 283.164 474.501 M 252.180 494.653 C 249.239 500.426, 247 508.792, 247 514.003 C 247 518.220, 249.364 527.474, 250.883 529.202 C 251.222 529.589, 251.376 525.314, 251.224 519.702 C 251.031 512.569, 251.521 506.793, 252.851 500.500 C 253.898 495.550, 254.616 491.344, 254.447 491.153 C 254.278 490.962, 253.258 492.537, 252.180 494.653" stroke="none" fill="#cccccc" fill-rule="evenodd"/><path d="M 0 296.002 L 0 592.005 205.250 591.752 L 410.500 591.500 410.752 295.750 L 411.003 0 205.502 0 L 0 0 0 296.002 M 0.493 296.500 C 0.493 459.300, 0.609 525.751, 0.750 444.169 C 0.891 362.587, 0.891 229.387, 0.750 148.169 C 0.609 66.951, 0.493 133.700, 0.493 296.500 M 284.325 3.160 C 280.379 3.656, 268.904 6.303, 258.825 9.042 C 218.142 20.096, 201.248 24.072, 174.469 28.896 C 110.959 40.336, 97.130 43.985, 73.879 55.441 C 58.242 63.146, 49.632 69.191, 38.947 79.966 C 20.437 98.631, 9.454 119.379, 3.976 146.028 C 0.742 161.761, 1.524 183.881, 6.397 214.500 C 8.410 227.150, 10.457 238.850, 10.944 240.500 C 11.432 242.150, 12.055 250.925, 12.329 260 C 13.266 291.026, 19.746 309.310, 35.831 326.310 C 43.194 334.092, 51.200 339.236, 61.058 342.519 C 65.426 343.974, 69 345.651, 69 346.247 C 69 346.843, 67.696 350.743, 66.103 354.915 C 64.509 359.087, 62.579 364.300, 61.814 366.500 L 60.422 370.500 50.461 370.748 C 39.685 371.016, 36 371.561, 36 372.886 C 36 373.352, 40.275 377.003, 45.500 381 C 50.725 384.997, 55.009 388.769, 55.020 389.383 C 55.031 389.997, 53.606 395.112, 51.853 400.749 C 50.100 406.387, 48.939 411.272, 49.273 411.607 C 49.918 412.251, 57.037 408.542, 65.783 403.005 L 71.067 399.659 73.783 401.824 C 80.124 406.878, 84.862 409.927, 87.336 410.548 C 89.599 411.116, 90.275 412.237, 92.049 418.356 C 96.118 432.390, 97.283 435.603, 101.128 443.390 C 106.608 454.487, 112.998 463.187, 122.674 472.726 C 132.410 482.323, 140.739 488.154, 158 497.456 C 177.384 507.903, 184.593 513.670, 196.182 528 C 204.570 538.372, 212 556.353, 212 566.280 L 212 571.349 214.559 568.945 C 215.966 567.623, 218.725 563.288, 220.690 559.313 C 224.066 552.482, 224.237 551.657, 223.809 544.267 C 223.446 537.999, 222.710 535.166, 220.093 529.975 C 213.670 517.234, 199.261 501.016, 185.220 490.722 C 181.765 488.189, 173.191 483.194, 166.166 479.622 C 146.908 469.829, 137.777 462.426, 126.549 447.500 C 116.123 433.640, 110.435 420.596, 107.611 404.074 C 103.615 380.690, 107.284 359.608, 122.765 317.007 C 126.861 305.736, 130.958 292.916, 131.870 288.518 C 133.108 282.546, 133.967 280.437, 135.264 280.188 C 136.746 279.902, 137 280.677, 137 285.479 C 137 294.474, 134.220 304.666, 128.471 316.750 C 125.527 322.938, 123.429 327.985, 123.809 327.967 C 124.189 327.948, 128.441 322.886, 133.258 316.717 C 154.103 290.019, 159.867 286.546, 146.585 308.685 C 128.094 339.506, 121.028 355.185, 119.020 369.857 C 116.467 388.503, 122.880 408.654, 138.704 431.710 C 142.400 437.095, 146.893 444.200, 148.689 447.500 C 152.608 454.700, 152.750 453.576, 149.970 437.349 C 144.714 406.664, 147.325 380.325, 157.687 359.500 C 162.280 350.268, 167.378 343.624, 177.913 333.142 C 182.689 328.389, 188.263 322.507, 190.299 320.070 C 193.902 315.757, 194 315.711, 194 318.353 C 194 322.760, 189.596 330.183, 181.411 339.569 C 168.521 354.353, 161.686 366.901, 157.471 383.517 C 152.767 402.060, 153.266 418.946, 159.028 436.211 C 162.834 447.614, 167.152 456.036, 176.171 469.646 L 183.557 480.791 183.558 464.646 C 183.558 448.652, 183.602 448.331, 188.237 430.500 C 193.136 411.649, 195.236 404.956, 198.985 396.250 C 201.482 390.453, 203 389.520, 203 393.782 C 203 397.503, 201.283 403.445, 194.701 422.500 C 188.005 441.887, 186.455 450.848, 187.945 461.560 C 189.904 475.641, 195.878 487.127, 207.749 499.630 C 217.754 510.167, 222.180 517.158, 225.523 527.697 C 234.098 554.738, 243.230 567.884, 263.370 582.176 C 276.193 591.277, 281.283 592.561, 292.068 589.417 C 317.136 582.110, 347.335 551.761, 356.368 524.799 C 358.165 519.436, 364 485.018, 364 479.784 C 364 475.124, 360.686 462.446, 357.459 454.758 C 356.014 451.316, 354.352 447.344, 353.765 445.931 C 352.785 443.570, 353.128 442.964, 358.008 438.431 C 372.531 424.942, 381.629 401.670, 379.032 384.652 C 377.831 376.778, 372.578 364.548, 368.944 361.163 C 367.680 359.985, 366.838 358.904, 367.073 358.761 C 367.308 358.617, 369.691 357.396, 372.370 356.047 C 381.214 351.594, 384.647 343.512, 381.101 335.495 C 379.945 332.883, 379 330.354, 379 329.875 C 379 329.396, 380.577 326.809, 382.505 324.126 C 390.738 312.667, 400.514 286.587, 401.669 273 C 402.153 267.317, 401.945 266.151, 400.017 263.722 C 397.673 260.770, 391.267 257.054, 388.290 256.919 C 387.017 256.861, 387.288 256.488, 389.227 255.628 C 393.502 253.732, 398 248.897, 398 246.198 C 398 243.286, 392.074 237.510, 387.559 236.020 C 383.834 234.790, 381.518 229.555, 376.934 212 C 372.639 195.552, 371.036 185.334, 370.427 170.509 L 369.892 157.500 374.696 154.423 C 387.800 146.030, 403.639 119.467, 407.636 99.179 C 412.146 76.290, 402.358 49.725, 382.606 31.248 C 365.745 15.476, 346.361 6.521, 321.633 3.082 C 312.599 1.825, 294.642 1.863, 284.325 3.160 M 273.250 15.706 C 269.564 16.416, 270.697 18, 274.891 18 C 281.314 18, 297.860 22.824, 305.932 27.051 C 320.548 34.704, 335.111 49.070, 342.493 63.119 C 349.057 75.610, 350.188 80.083, 350.745 95.750 C 351.024 103.587, 351.667 110, 352.175 110 C 352.682 110, 353.966 108.088, 355.027 105.750 C 357.455 100.400, 357.686 86.114, 355.483 77.460 C 353.381 69.204, 345.237 52.764, 339.466 45.131 C 329.371 31.777, 313.359 20.800, 298.391 16.972 C 291.228 15.140, 279.305 14.540, 273.250 15.706 M 358.035 28.409 C 358.016 28.909, 360.648 33.409, 363.885 38.409 C 379.019 61.785, 382.533 84.866, 373.948 104.500 C 371.220 110.738, 368.505 113.667, 370.980 107.702 C 374.767 98.572, 376.227 90.915, 375.785 82.500 C 375.553 78.100, 374.727 73.375, 373.947 72 C 372.638 69.690, 372.475 70.361, 371.808 80.815 C 371.411 87.038, 370.139 95.588, 368.982 99.815 C 366.455 109.049, 359.360 124.369, 354.436 131.222 C 352.471 133.958, 351.136 136.470, 351.471 136.804 C 352.733 138.067, 359.479 133.306, 366.265 126.364 C 380.810 111.483, 384.272 103.433, 384.265 84.500 C 384.262 73.848, 383.920 71.457, 381.227 63.220 C 379.558 58.116, 376.314 50.778, 374.018 46.913 C 370.089 40.301, 358.111 26.432, 358.035 28.409 M 177 38.599 C 154.264 41.614, 115.111 50.214, 97.974 55.955 C 60.724 68.435, 30.357 98.084, 18.428 133.619 C 12.532 151.183, 11.175 165.955, 13.472 187.553 C 15.031 202.207, 16.005 206.328, 17.547 204.787 C 17.866 204.468, 18.976 198.336, 20.014 191.161 C 21.109 183.591, 22.726 176.498, 23.866 174.262 C 29.396 163.423, 47.313 152.960, 71.500 146.446 C 92.383 140.823, 96 139.680, 96 138.706 C 96 137.085, 74.424 138.640, 65.825 140.880 C 48.935 145.281, 36.240 152.314, 24.815 163.600 C 21.617 166.759, 19 168.758, 19 168.042 C 19 165.025, 24.393 143.027, 26.724 136.540 C 34.905 113.763, 51.159 91.702, 69.072 79.060 C 83.142 69.130, 96.841 63.232, 120.018 57.127 C 153.971 48.184, 170.718 45.557, 193.500 45.601 C 209.733 45.632, 212.460 45.893, 221.277 48.267 C 232.897 51.395, 247.772 58.234, 256.501 64.464 C 264.324 70.046, 274.539 81.070, 281.301 91.227 C 289.937 104.199, 289.895 96.695, 281.232 79 C 275.111 66.496, 263.320 54.152, 252.154 48.559 C 242.455 43.699, 229.076 39.395, 219.554 38.071 C 209.288 36.643, 189.934 36.883, 177 38.599 M 311 45.107 C 311 45.755, 314.194 50.977, 318.097 56.711 C 332.372 77.682, 336.583 90.525, 335.653 110.250 C 335.326 117.181, 335.478 122, 336.024 122 C 339.960 122, 342.349 102.580, 340.044 89.314 C 337.821 76.523, 330.988 63.712, 319.934 51.619 C 314.377 45.538, 311 43.077, 311 45.107 M 289 47.540 C 289 47.837, 293.524 54.024, 299.053 61.290 C 312.742 79.277, 319.952 94.585, 320.015 105.799 C 320.024 107.285, 320.474 109.175, 321.015 110 C 322.955 112.955, 324.117 108.870, 323.718 100.500 C 323.128 88.118, 317.936 76.990, 305.256 60.930 C 298.363 52.200, 289 44.487, 289 47.540 M 324.033 47.848 C 324.015 48.589, 326.551 53.314, 329.669 58.348 C 345.363 83.683, 347.394 97.465, 339.444 124.664 C 338.981 126.250, 339.380 127.133, 340.937 127.966 C 342.891 129.012, 343.259 128.676, 345.485 123.802 C 348.847 116.444, 350.487 102.161, 349.129 92.072 C 347.893 82.889, 344.532 73.171, 339.877 65.323 C 336.136 59.015, 324.086 45.724, 324.033 47.848 M 279.732 54.271 C 280.794 56.070, 285.676 62.604, 290.581 68.791 C 301.223 82.213, 306.435 90.533, 308.695 97.702 C 310.934 104.805, 312.413 104.492, 311.739 97.059 C 311.120 90.229, 308.011 82.875, 301.922 73.832 C 293.435 61.229, 273.435 43.598, 279.732 54.271 M 388.484 55.500 C 392.219 66.973, 393.138 86.963, 390.504 99.399 C 387.646 112.889, 379.459 125.656, 366.072 137.500 C 361.720 141.350, 358.123 144.838, 358.080 145.250 C 357.901 146.932, 362.812 145.802, 367.591 143.061 C 373.897 139.444, 384.258 128.370, 389.276 119.885 C 397.180 106.517, 400.480 89.501, 397.689 76.500 C 395.754 67.487, 392.431 58.697, 389.860 55.791 C 388.036 53.730, 387.898 53.701, 388.484 55.500 M 191 56.084 C 176.682 57.662, 176.012 58.832, 189.374 58.921 C 197.833 58.977, 204.817 59.723, 213.655 61.512 C 240.966 67.042, 256.405 75.284, 269.648 91.407 C 275.388 98.395, 276.702 96.998, 272.489 88.388 C 267.053 77.277, 253.970 66.103, 240.500 61.067 C 228.003 56.395, 207.187 54.299, 191 56.084 M 181 63.715 C 181 64.264, 185.162 65.022, 190.250 65.400 C 217.112 67.395, 237.944 75.513, 252.778 89.767 C 256.365 93.213, 259.500 95.833, 259.745 95.588 C 260.936 94.397, 258.493 88.863, 254.613 83.959 C 247.962 75.556, 235.420 68.876, 220 65.527 C 211.141 63.603, 181 62.202, 181 63.715 M 138.670 90.120 C 122.929 91.636, 108.656 95.451, 97.070 101.241 C 91.281 104.133, 86.396 107.027, 86.215 107.671 C 86.001 108.433, 88.960 107.993, 94.693 106.411 C 122.260 98.799, 153.098 95.327, 177 97.145 C 198.660 98.792, 199.283 99.565, 179.500 100.249 C 161.989 100.854, 146.581 102.872, 130 106.734 C 123.493 108.249, 122.963 108.527, 126 108.829 C 127.925 109.020, 136.700 108.697, 145.500 108.111 C 154.300 107.525, 173.875 106.753, 189 106.396 C 204.125 106.039, 217.105 105.425, 217.845 105.031 C 218.646 104.604, 216.715 103.788, 213.071 103.015 C 209.705 102.301, 207.149 101.518, 207.391 101.275 C 207.634 101.033, 212.033 101.359, 217.166 102.001 C 222.300 102.642, 228.300 103.002, 230.500 102.800 L 234.500 102.433 227 98.781 C 222.404 96.542, 215.628 94.349, 209.500 93.116 C 191.204 89.435, 159.653 88.100, 138.670 90.120 M 257.389 107.454 C 249.361 109.246, 245.412 111.379, 234 120.088 C 228.775 124.076, 221.261 128.840, 217.301 130.676 C 200.835 138.310, 173.937 141.912, 118 143.976 C 90.663 144.984, 83.018 146.132, 79.362 149.775 C 77.722 151.409, 78.023 151.517, 85.065 151.819 C 111.236 152.940, 192.159 148.094, 207.791 144.469 C 219.658 141.717, 229.618 136.227, 238.501 127.543 C 250.870 115.452, 259.560 112.536, 276.043 114.946 C 291.654 117.229, 308.548 124.484, 327.300 136.958 C 337.980 144.063, 345.210 147.935, 347.872 147.978 C 350.004 148.012, 347.898 145.839, 335.556 135.271 C 318.904 121.012, 305.171 113.494, 287.687 109.065 C 277.425 106.466, 264.818 105.795, 257.389 107.454 M 143.500 109.933 L 135.500 110.500 154 112.818 C 173.940 115.317, 193.794 115.780, 205.500 114.021 C 214.540 112.662, 224.938 110.395, 225.721 109.613 C 226.470 108.863, 154.654 109.143, 143.500 109.933 M 269.205 142.826 C 263.094 145.016, 257.269 149.400, 254.741 153.713 C 253.684 155.518, 252.397 161.456, 251.513 168.607 C 250.300 178.427, 249.424 181.756, 246.489 187.705 C 239.709 201.450, 230.138 209.626, 211.029 217.994 C 198.159 223.630, 191.716 228.877, 189.797 235.285 L 188.656 239.091 175.677 238.796 C 166.841 238.594, 162.576 238.853, 162.314 239.607 C 162.053 240.357, 166.055 240.933, 174.714 241.392 C 192.219 242.319, 248.087 244.981, 250.275 244.991 C 251.253 244.996, 252.476 243.877, 253 242.500 C 253.785 240.435, 254.616 240, 257.772 240 C 260.944 240, 262.266 239.299, 265.547 235.877 C 271.716 229.442, 276.715 227.639, 288 227.778 C 298.307 227.905, 308.757 230.158, 319.242 234.514 C 328.613 238.406, 328.780 238.425, 325 235.150 C 314.331 225.906, 294.154 217.155, 278.678 215.059 C 266.882 213.462, 261.553 213.808, 249.511 216.953 C 236.785 220.276, 237.329 219.434, 253 211.549 C 274.399 200.781, 288.782 197.834, 300.500 201.817 C 303.800 202.939, 316.288 208.667, 328.250 214.547 C 349.327 224.906, 350 225.330, 350 228.218 C 350 233.505, 347.284 237.531, 341.698 240.523 C 338.839 242.054, 336.322 243.453, 336.104 243.633 C 335.886 243.812, 337.461 245.914, 339.604 248.303 C 341.747 250.692, 345.210 254.751, 347.300 257.324 C 351.282 262.225, 354.640 263.344, 356.963 260.545 C 357.935 259.373, 357.667 258.430, 355.585 255.701 C 354.054 253.693, 353 251.011, 353 249.122 C 353 245.956, 357.337 236.092, 359.274 234.853 C 359.830 234.497, 362.808 235.076, 365.893 236.140 C 368.977 237.204, 372.625 237.946, 374 237.787 C 376.990 237.444, 377.014 235.917, 374.151 228 C 373.057 224.975, 370.723 217.100, 368.964 210.500 C 366.040 199.532, 365.722 196.844, 365.264 179.254 L 364.763 160.008 358.132 160.605 C 349.181 161.410, 341.450 159.464, 324.088 152.038 C 305.335 144.016, 297.779 141.959, 285 141.393 C 276.388 141.012, 273.548 141.270, 269.205 142.826 M 210 157.665 C 194.654 162.714, 185.610 165.005, 173.222 166.979 C 166.225 168.094, 158.925 169.320, 157 169.703 C 155.075 170.086, 136.400 170.439, 115.500 170.487 C 79.258 170.571, 77.130 170.679, 69.500 172.828 C 56.756 176.416, 36 187.094, 36 190.061 C 36 190.592, 37.688 190.289, 39.750 189.388 C 49.218 185.250, 65.593 179.958, 73.170 178.588 C 83.807 176.664, 94.387 176.404, 120.500 177.427 C 157.409 178.873, 184.266 174.447, 206.500 163.255 C 214.099 159.430, 220.656 154.991, 218.500 155.132 C 217.950 155.168, 214.125 156.308, 210 157.665 M 71 156.974 C 59.238 159.265, 48.157 164.589, 39.754 171.985 C 34.982 176.185, 30.441 181.775, 31.191 182.524 C 31.416 182.749, 33.828 181.335, 36.550 179.380 C 45.975 172.615, 61.812 165.687, 72.992 163.437 C 74.913 163.051, 82.011 162.232, 88.767 161.617 C 101.118 160.494, 104.056 159.347, 98.500 157.819 C 93.864 156.543, 76.024 155.996, 71 156.974 M 189.500 174.064 C 160.510 179.593, 152.752 180.296, 122.673 180.122 C 98.046 179.980, 93.886 180.189, 86.501 181.944 C 76.719 184.267, 62.214 189.931, 56.697 193.582 C 49.960 198.040, 50.067 198.028, 79.500 190.963 C 95.821 187.045, 102.364 186.570, 120.209 188.008 C 132.017 188.959, 138.655 188.977, 149.353 188.085 C 166.287 186.674, 183.800 183.757, 192.212 180.946 C 198.740 178.764, 208 173.456, 208 171.896 C 208 170.647, 206.488 170.824, 189.500 174.064 M 210 180.019 C 207.303 181.796, 192.748 186.089, 180.500 188.720 C 169.251 191.137, 166.121 191.341, 130.500 191.988 C 93.135 192.666, 89.815 192.976, 83.192 196.401 C 77.514 199.337, 79.356 200.072, 90.750 199.419 C 96.729 199.076, 106.826 199.322, 113.500 199.973 C 145.031 203.050, 147.799 202.829, 175.221 195.049 C 197.400 188.757, 205.919 185.565, 210.118 181.974 C 213.316 179.238, 213.235 177.888, 210 180.019 M 221.199 183.509 C 215.563 187.024, 205.370 190.461, 174 199.422 C 149.711 206.360, 145.439 206.956, 119.750 206.980 C 91.096 207.008, 92.213 208.990, 122 210.973 C 137.275 211.990, 148.858 210.847, 161.853 207.041 C 167.159 205.487, 178.628 202.130, 187.340 199.579 C 206.423 193.994, 213.131 191.348, 220.343 186.561 C 229.876 180.233, 230.602 177.646, 221.199 183.509 M 228 189.500 C 221.974 193.607, 210.961 197.744, 197.487 200.964 C 190.344 202.671, 180.246 205.430, 175.047 207.095 C 159.414 212.102, 144.446 214.869, 126.385 216.093 C 98.291 217.995, 103.405 220.634, 133.352 219.687 C 153.346 219.055, 155.936 218.620, 173.756 212.901 C 180.496 210.738, 189.046 208.282, 192.756 207.443 C 209.659 203.618, 223.028 197.628, 229.535 190.965 C 233.876 186.519, 233.250 185.922, 228 189.500 M 47.803 210.399 C 42.378 211.860, 36.629 215.438, 31.557 220.510 C 15.030 237.036, 16.454 281.292, 34.379 308.241 C 44.367 323.256, 63.425 336.403, 77.104 337.714 C 88.140 338.772, 95.734 333.866, 98.866 323.656 C 102.234 312.673, 106.095 294.910, 109.332 275.499 L 112.500 256.500 135.920 256.231 C 158.347 255.974, 162 255.504, 162 252.878 C 162 252.395, 151.237 252, 138.082 252 C 124.927 252, 113.441 251.723, 112.559 251.384 C 111.676 251.045, 109.417 247.443, 107.539 243.379 C 103.462 234.555, 98.735 228.550, 91.657 223.206 C 75.968 211.361, 60.745 206.915, 47.803 210.399 M 47.303 219.645 C 41.665 221.642, 35.380 227.952, 32.164 234.845 C 29.817 239.874, 29.485 241.962, 29.165 253.717 C 28.705 270.604, 30.513 280.204, 36.466 292.500 C 43.042 306.081, 56.787 320, 63.624 320 C 66.866 320, 69 317.365, 69 313.363 C 69 308.088, 67.633 306.442, 59.864 302.359 C 49.001 296.651, 43.839 288.997, 39.426 272.055 C 38.642 269.043, 38.010 262.287, 38.022 257.040 C 38.045 246.842, 39.789 241.041, 44.312 236.119 C 47.222 232.951, 57.741 227.996, 61.500 228.023 C 68.019 228.069, 76.593 234.113, 78.936 240.315 C 79.521 241.863, 79.996 245.688, 79.990 248.815 C 79.980 254.502, 79.237 256.484, 72.433 268.962 C 69.628 274.106, 69.356 279.576, 71.610 285.500 C 74.469 293.017, 74.494 292.817, 70.643 293.539 C 65.747 294.458, 60.320 291.624, 56.519 286.164 C 53.888 282.385, 53.500 280.962, 53.500 275.086 C 53.500 269.277, 53.879 267.847, 56.241 264.751 C 57.749 262.774, 62.249 259.191, 66.241 256.788 C 71.524 253.608, 73.998 251.410, 75.330 248.713 C 79.598 240.076, 72.246 231, 60.982 231 C 56.256 231, 52.531 232.706, 49 236.488 L 46.500 239.165 51 236.595 C 56.703 233.337, 60.387 233.296, 63.545 236.455 C 67.249 240.158, 66.737 243.307, 61.798 247.194 C 50.597 256.007, 46 263.233, 46 272.023 C 46 280.279, 51.817 290.637, 58.730 294.688 C 62.338 296.802, 63.876 297.140, 67.550 296.624 C 82.436 294.536, 80.492 294.211, 85.457 299.618 C 89.629 304.162, 90.047 304.381, 91.595 302.834 C 93.899 300.529, 92.786 295.385, 88.789 289.868 C 86.508 286.721, 85.512 284.103, 85.223 280.500 C 84.857 275.934, 85.155 275.075, 88.661 270.601 L 92.500 265.702 92.484 256.101 C 92.463 243.190, 89.996 236.916, 81.603 228.421 C 77.069 223.832, 74.012 221.699, 69.712 220.122 C 62.905 217.626, 53.563 217.427, 47.303 219.645 M 273.407 232.893 C 268.670 235.782, 263.002 243.237, 262.985 246.603 C 262.955 252.256, 262.554 252.381, 246.842 251.665 C 238.954 251.306, 216.829 249.878, 197.675 248.493 C 178.521 247.108, 162.434 246.232, 161.925 246.546 C 161.416 246.861, 161 247.924, 161 248.909 C 161 250.453, 162.264 250.790, 170.154 251.350 C 175.188 251.708, 183.176 252.007, 187.904 252.015 C 192.632 252.024, 197.088 252.403, 197.806 252.859 C 198.684 253.416, 199.363 257.594, 199.876 265.594 C 200.825 280.405, 202.487 284.431, 211.700 294.236 C 220.624 303.736, 224.167 308.367, 227.369 314.717 C 231.497 322.902, 239.976 330.346, 250.702 335.202 C 257.473 338.268, 270.854 338.215, 280.250 335.085 C 283.962 333.849, 287 332.481, 287 332.046 C 287 331.611, 285.141 330.958, 282.869 330.595 C 271.079 328.710, 255.441 315.926, 251.224 304.727 C 247.843 295.747, 246.689 283.483, 248.005 270.519 C 249.534 255.458, 249.284 256, 254.699 256 L 259.263 256 258.626 260.250 C 256.340 275.486, 255.999 281.692, 257.036 289.261 C 259.183 304.946, 265.731 317.258, 275.370 323.736 C 281.830 328.078, 286.939 329.300, 296.545 328.799 C 318.754 327.642, 337.224 308.366, 344.982 278.250 C 345.909 274.654, 346.468 274, 348.615 274 C 350.110 274, 352.404 275.251, 354.196 277.042 L 357.238 280.084 356.575 277.443 C 356.014 275.207, 356.647 274.069, 360.706 270.018 C 366.761 263.976, 373.274 262.236, 383.138 264.025 C 397.478 266.625, 399.396 271.070, 393.865 288.893 C 390.633 299.309, 379.825 318.999, 375.352 322.623 C 373.724 323.941, 374.595 327, 376.597 327 C 378.443 327, 384.308 318.963, 388.005 311.367 C 392.585 301.959, 399 281.805, 399.658 274.761 C 400.200 268.959, 400.034 268.194, 397.610 265.313 C 394.097 261.139, 387.439 258.995, 378.072 259.022 C 369.380 259.047, 364.162 260.979, 359.563 265.874 C 357.741 267.813, 355.653 268.995, 354.063 268.986 C 348.518 268.957, 347.263 267.986, 345.099 262.050 C 340.989 250.780, 331.592 242.020, 318.146 236.927 C 303.155 231.250, 279.588 229.125, 273.407 232.893 M 277.500 236.662 C 268.555 241.377, 264.081 250.685, 261.950 269.009 C 258.913 295.139, 266.452 314.282, 282.714 321.726 C 299.982 329.632, 324.419 316.294, 335.994 292.645 C 342.885 278.565, 344.568 268.021, 341.125 260.500 C 336.947 251.377, 322.255 241.843, 305.020 237.071 C 295.737 234.501, 281.987 234.296, 277.500 236.662 M 347 278.044 C 347 280.596, 339.440 299.065, 336.171 304.500 C 334.185 307.800, 329.290 314.001, 325.292 318.280 C 321.294 322.559, 317.738 327.196, 317.390 328.584 C 315.793 334.946, 320.039 343.843, 327.121 348.973 C 334.978 354.665, 346.455 357.444, 352.434 355.102 C 355.445 353.923, 353.100 353.052, 341.289 350.963 C 333.515 349.587, 330.074 348.511, 328.567 346.981 C 326.527 344.912, 326.526 344.866, 328.441 343.442 C 331.271 341.340, 340.310 341.602, 344.790 343.918 C 346.830 344.972, 350.944 347.672, 353.931 349.918 C 358.552 353.392, 360.087 354, 364.230 354 C 375.142 354, 383.010 344.695, 378.872 336.684 C 378.251 335.483, 374.575 329.131, 370.702 322.570 C 366.457 315.377, 362.151 306.355, 359.860 299.850 C 355.136 286.440, 350.437 277, 348.486 277 C 347.669 277, 347 277.470, 347 278.044 M 357.403 282.500 C 360.873 296.418, 364.884 308.545, 364.970 305.380 C 365.017 303.649, 358.971 283.743, 357.876 282.025 C 357.100 280.807, 357.005 280.902, 357.403 282.500 M 157.792 303.979 C 139.678 323.827, 128.850 344.465, 126.072 364.440 C 123.707 381.444, 125.596 389.591, 128.270 373.920 C 131.493 355.031, 138.993 337.395, 151.047 320.359 C 163.946 302.129, 165.179 300.166, 164.838 298.396 C 164.584 297.081, 162.791 298.502, 157.792 303.979 M 161.588 316.152 C 155.072 323.493, 148.061 331.975, 146.008 335 C 137.722 347.204, 132.924 359.803, 133.074 368.960 L 133.149 373.500 135.429 367 C 140.199 353.400, 146.231 343.357, 159.454 327 C 167.395 317.177, 174.444 305.831, 173.802 303.905 C 173.600 303.299, 168.104 308.810, 161.588 316.152 M 173.885 319.750 C 158.632 335.384, 148.957 347.693, 144.863 356.674 C 140.292 366.702, 137.988 376.519, 138.102 385.480 C 138.192 392.548, 138.321 393.085, 139.191 390 C 146.859 362.809, 152.376 352.423, 170 332 C 176.771 324.153, 184.776 313.375, 188.382 307.250 C 190.689 303.331, 185.748 307.592, 173.885 319.750 M 209.437 328.799 C 195.422 348.100, 188.464 362.451, 184.856 379.500 C 182.624 390.050, 181.108 413.670, 182.727 412.669 C 183.303 412.313, 184.068 410.449, 184.429 408.527 C 187.699 391.096, 198.204 360.851, 208.677 338.717 C 212.784 330.036, 215.971 322.414, 215.759 321.778 C 215.548 321.143, 212.703 324.302, 209.437 328.799 M 200.243 329.400 C 187.259 343.279, 180.685 354.932, 176.445 371.579 C 173.473 383.246, 172.452 394.057, 173.445 403.328 C 174.207 410.451, 175.998 412.496, 176.003 406.250 C 176.018 388.395, 186.926 357.456, 202.008 332.486 C 204.869 327.750, 207 323.667, 206.744 323.411 C 206.489 323.155, 203.563 325.850, 200.243 329.400 M 225.399 334.587 C 217.304 338.861, 213.336 343.482, 209.587 353 C 205.004 364.636, 205.877 375.890, 212.432 389.695 C 219.126 403.791, 229.830 412, 241.515 412 C 256.629 412, 277.485 400.864, 294 383.977 C 306.562 371.131, 316.966 359.633, 316.474 359.140 C 315.447 358.113, 304.901 362.202, 299.906 365.563 C 297.054 367.483, 294.513 368.846, 294.260 368.593 C 293.675 368.008, 304.674 356.922, 308 354.743 L 310.500 353.105 307.946 353.052 C 303.714 352.966, 295.325 357.844, 290.522 363.187 C 285.789 368.451, 284.851 368.790, 287.677 364.215 C 290.596 359.489, 297.355 352.910, 301.500 350.760 C 306.609 348.109, 304.605 347.392, 297.698 349.399 C 290.256 351.563, 286.081 356.048, 279.462 368.987 C 272.988 381.644, 267.235 387.646, 258.414 390.946 C 240.720 397.567, 225.076 388.935, 218.976 369.187 C 214.894 355.972, 217.023 346.646, 226.267 337.250 C 229.107 334.363, 231.177 332, 230.865 332 C 230.553 332, 228.093 333.164, 225.399 334.587 M 237.952 341.134 C 231.971 344.553, 229.552 349.201, 229.150 358.055 C 228.569 370.820, 233.432 378.219, 244.614 381.584 C 257.710 385.526, 268.818 379.803, 275.620 365.609 C 277.459 361.771, 278.714 358.380, 278.407 358.074 C 278.101 357.767, 277.374 358.413, 276.792 359.508 C 274.448 363.922, 263.240 373.840, 259.387 374.909 C 244.681 378.993, 233 370.527, 233 355.785 C 233 351.024, 234.155 348.631, 238.803 343.768 C 243.055 339.320, 242.754 338.390, 237.952 341.134 M 318.500 365.681 C 313.910 368.132, 308.500 372.575, 297.006 383.337 C 277.063 402.009, 265.203 409.566, 251.949 412.046 C 242.297 413.853, 241.772 414.445, 249.500 414.805 C 262.199 415.398, 274.505 411.589, 285.390 403.697 C 296.305 395.784, 324 368.008, 324 364.974 C 324 363.575, 321.954 363.838, 318.500 365.681 M 212.070 368.212 C 212.032 369.154, 212.944 372.447, 214.097 375.530 C 217.953 385.836, 232.665 398.859, 239.218 397.767 C 241.058 397.461, 240.386 396.876, 235.747 394.747 C 225.733 390.152, 217.493 381.026, 213.450 370.055 C 212.730 368.100, 212.109 367.271, 212.070 368.212 M 327.219 370.956 C 321.977 374.754, 285.836 409.169, 286.447 409.781 C 287.293 410.627, 295.599 405.175, 304.709 397.794 C 309.660 393.782, 317.039 388.098, 321.108 385.162 C 328.383 379.913, 333.052 374.687, 334.434 370.250 C 335.454 366.976, 332.285 367.287, 327.219 370.956 M 265.500 395.546 C 252.369 403.700, 233.833 404.242, 222.500 396.802 C 220.621 395.568, 221.312 396.546, 224.347 399.416 C 235.628 410.086, 252.623 408.965, 266.500 396.637 C 271.223 392.441, 270.961 392.155, 265.500 395.546 M 333.548 402.782 C 331.099 406.477, 327.485 410.767, 325.518 412.317 C 318.016 418.222, 301.862 424.237, 289.857 425.596 C 286.611 425.963, 283.668 426.728, 283.317 427.295 C 282.252 429.020, 287.733 432.866, 293.745 434.614 C 297.882 435.817, 301.463 436.106, 306.960 435.680 C 324.162 434.347, 335.883 427.786, 336.100 419.368 C 336.155 417.240, 336.531 414.375, 336.936 413 C 337.521 411.014, 338.149 412.599, 339.993 420.711 C 343.160 434.649, 347.799 442.613, 349.359 436.791 C 351.029 430.558, 349.985 421.058, 346.614 411.800 C 340.039 393.744, 339.695 393.507, 333.548 402.782 M 249.001 442.250 C 243.201 449.372, 237.640 459.943, 235.456 468 C 233.602 474.840, 232.493 491.708, 233.693 494.809 C 234.430 496.709, 235.704 493.618, 240.907 477.315 C 244.793 465.137, 249.200 453.661, 252.353 447.507 C 255.173 442.003, 257.634 437.163, 257.823 436.750 C 258.012 436.337, 257.250 436, 256.129 436 C 254.838 436, 252.224 438.293, 249.001 442.250 M 259.174 443.750 C 249.839 457.511, 245.801 468.442, 242.994 487.541 C 239.467 511.541, 240.581 524.782, 247.350 539.332 C 252.017 549.363, 257.726 556.186, 264.118 559.372 C 269.309 561.958, 274.400 562.780, 275.383 561.189 C 275.659 560.743, 273.183 557.481, 269.882 553.939 C 266.581 550.398, 262.818 545.700, 261.519 543.500 C 254.751 532.036, 254.382 518.124, 260.349 499.337 C 264.522 486.197, 267.731 470.351, 268.656 458.308 C 269.503 447.292, 268.021 447.813, 264.419 459.798 C 262.980 464.584, 261.168 470.300, 260.393 472.500 C 259.013 476.414, 258.993 476.323, 259.458 468.272 C 259.720 463.746, 260.667 457.221, 261.563 453.772 C 263.812 445.114, 264.860 438, 263.888 438 C 263.441 438, 261.319 440.587, 259.174 443.750 M 331.422 453.638 L 332.015 459.500 330.097 455.364 C 326.414 447.423, 325.595 448.635, 326.568 460.592 C 327.056 466.592, 327.447 479.825, 327.438 490 C 327.421 508.275, 327.381 508.621, 324.090 518.500 C 317.508 538.258, 309.270 551.725, 296.173 564.140 C 291.321 568.738, 284.471 574.188, 280.949 576.250 C 275.681 579.335, 275.010 580, 277.167 580 C 280.985 580, 292.574 576.237, 299.500 572.748 C 309.279 567.823, 316.220 562.624, 323.678 554.637 C 335.940 541.508, 341.882 525.493, 342.095 505 C 342.240 491.100, 343.887 496.833, 344.180 512.258 C 344.293 518.174, 344.700 522.674, 345.086 522.258 C 346.279 520.968, 348.015 511.112, 348.636 502.100 C 349.439 490.467, 347.928 483.405, 342.091 471.500 C 339.395 466, 336.181 458.674, 334.949 455.219 C 331.972 446.869, 330.678 446.289, 331.422 453.638 M 271.623 458.105 C 271.355 459.422, 270.601 464.768, 269.948 469.984 C 269.295 475.200, 267.711 483.802, 266.428 489.099 C 262.231 506.432, 261.273 521.768, 264.060 527 C 264.682 528.167, 265.107 527.848, 265.974 525.567 C 268.005 520.226, 272.868 499.630, 274.029 491.450 C 275.455 481.406, 274.976 458.570, 273.305 456.903 C 272.380 455.979, 272.001 456.251, 271.623 458.105 M 283.164 474.501 C 283.349 480.827, 283.397 486.002, 283.270 486.001 C 283.144 486.001, 282.100 484.156, 280.951 481.903 C 279.801 479.650, 278.636 478.030, 278.362 478.304 C 278.089 478.578, 277.441 483.306, 276.923 488.810 C 276.405 494.314, 274.860 504.321, 273.491 511.046 C 271.078 522.891, 270.182 536, 271.785 536 C 272.216 536, 273.679 533.032, 275.035 529.405 C 276.391 525.778, 277.783 522.635, 278.129 522.421 C 278.475 522.207, 278.534 526.862, 278.261 532.766 C 277.772 543.318, 279.206 553.296, 280.936 551.377 C 281.371 550.895, 282.758 542.400, 284.019 532.500 C 285.279 522.600, 286.645 514.118, 287.054 513.651 C 288.305 512.223, 289.286 531.403, 288.792 547.642 C 288.536 556.089, 288.470 563, 288.646 563 C 289.483 563, 294.059 552.618, 296.580 545 C 299.068 537.484, 299.399 534.995, 299.441 523.500 C 299.489 510.613, 299.454 510.409, 295.399 500 C 292.024 491.338, 288.456 478.868, 285.457 465.250 C 285.185 464.012, 284.482 463, 283.895 463 C 283.181 463, 282.939 466.809, 283.164 474.501 M 252.180 494.653 C 249.239 500.426, 247 508.792, 247 514.003 C 247 518.220, 249.364 527.474, 250.883 529.202 C 251.222 529.589, 251.376 525.314, 251.224 519.702 C 251.031 512.569, 251.521 506.793, 252.851 500.500 C 253.898 495.550, 254.616 491.344, 254.447 491.153 C 254.278 490.962, 253.258 492.537, 252.180 494.653" stroke="none" fill="#ff000000" fill-rule="evenodd"/></svg>