<?xml version="1.0" standalone="no"?>
<!DOCTYPE svg PUBLIC "-//W3C//DTD SVG 20010904//EN"
 "http://www.w3.org/TR/2001/REC-SVG-20010904/DTD/svg10.dtd">
<svg version="1.0" xmlns="http://www.w3.org/2000/svg"
 width="1202.000000pt" height="381.000000pt" viewBox="0 0 1202.000000 381.000000"
 preserveAspectRatio="xMidYMid meet">

<g transform="translate(0.000000,381.000000) scale(0.100000,-0.100000)"
fill="#000" stroke="none">
<path d="M403 3753 c-43 -48 -88 -140 -115 -240 -16 -59 -21 -109 -22 -206 -1
-150 2 -150 -91 13 -40 71 -60 99 -68 91 -5 -5 -12 -55 -15 -109 -5 -107 15
-258 48 -364 10 -32 16 -58 13 -58 -2 0 -23 15 -46 34 -47 37 -86 60 -93 53
-8 -8 23 -128 55 -216 17 -46 53 -126 81 -177 27 -52 47 -94 44 -94 -4 0 -38
11 -77 25 -38 14 -72 23 -75 20 -15 -15 99 -190 208 -316 l45 -52 -35 6 c-19
3 -50 9 -69 13 l-34 7 19 -34 c30 -54 154 -170 227 -213 37 -21 67 -43 67 -47
0 -5 -22 -9 -50 -9 -27 0 -50 -4 -50 -8 0 -30 130 -117 228 -152 61 -22 69
-34 28 -42 -37 -6 -17 -23 53 -45 90 -29 178 -43 263 -43 37 0 70 -5 73 -10 4
-6 25 -20 47 -31 43 -22 107 -21 135 3 23 19 38 2 57 -68 l19 -67 -96 -191
c-146 -289 -206 -394 -262 -452 -57 -61 -60 -62 -204 -43 -150 20 -252 -18
-333 -126 -56 -75 -71 -130 -68 -249 6 -190 6 -197 -23 -222 -44 -37 -103 -40
-181 -9 -68 27 -96 27 -96 1 0 -24 68 -73 128 -92 84 -27 165 -24 232 10 67
33 98 61 116 102 l13 31 73 -25 c129 -43 232 -19 330 79 89 89 117 195 80 304
l-21 60 55 90 c133 216 260 358 374 419 l65 35 60 -32 c113 -58 292 -268 405
-474 23 -42 23 -42 5 -99 -24 -76 -17 -167 18 -226 86 -147 230 -206 385 -159
39 11 72 21 74 21 2 0 12 -16 22 -35 24 -44 93 -91 164 -111 44 -13 65 -14
115 -5 107 19 214 86 192 121 -9 15 -23 13 -90 -15 -33 -13 -73 -25 -90 -25
-43 0 -115 35 -117 57 -1 10 -2 88 -2 173 -1 148 -2 158 -28 210 -51 103 -151
180 -256 196 -24 4 -85 1 -136 -6 -51 -7 -105 -10 -121 -6 -65 16 -139 129
-315 481 l-110 220 23 68 c13 38 26 68 30 67 4 0 23 -8 44 -16 46 -20 93 -13
144 21 32 20 51 25 106 25 81 0 232 30 294 58 45 20 45 20 -8 38 -14 5 -11 9
17 21 114 50 186 91 223 127 l42 41 -45 3 c-77 5 -78 10 -9 52 89 54 163 117
209 179 46 61 49 75 18 68 -56 -13 -98 -19 -98 -12 0 4 24 35 53 68 98 113
208 279 194 293 -3 3 -39 -6 -81 -20 -42 -14 -79 -26 -82 -26 -3 0 4 13 16 30
57 80 137 280 174 433 11 45 -29 31 -101 -36 -18 -17 -35 -29 -37 -26 -3 2 6
45 19 96 35 133 50 283 37 367 -10 64 -17 85 -25 75 -2 -2 -34 -57 -71 -121
-37 -65 -69 -118 -71 -118 -2 0 -3 51 -3 113 0 136 -26 257 -77 362 -35 73
-95 142 -114 131 -6 -4 -11 -28 -11 -54 0 -72 -36 -302 -64 -407 -32 -118 -59
-173 -134 -266 -138 -172 -474 -721 -742 -1211 -23 -43 -45 -78 -48 -78 -4 0
-72 116 -151 258 -289 515 -540 919 -649 1044 -28 31 -62 82 -77 114 -47 99
-88 297 -110 537 -4 37 -11 67 -17 67 -6 0 -26 -17 -45 -37z m72 -411 c39
-147 104 -267 338 -622 247 -376 351 -544 467 -760 46 -85 134 -241 196 -347
118 -200 238 -417 370 -667 81 -153 143 -235 191 -254 16 -6 91 -13 168 -15
155 -4 187 -13 250 -68 49 -43 65 -84 64 -156 -1 -32 -4 -47 -6 -33 -21 127
-81 193 -206 226 -61 16 -154 18 -215 4 -95 -22 -153 40 -298 322 -53 104
-121 222 -150 263 -42 57 -54 81 -54 110 0 28 -7 44 -31 66 -17 16 -40 29 -50
29 -14 0 -36 35 -90 143 -200 398 -345 649 -515 892 -39 55 -130 189 -204 298
-73 108 -135 195 -138 192 -13 -13 127 -271 204 -376 24 -32 40 -59 35 -59
-16 0 -153 152 -195 218 -91 141 -156 300 -187 457 -16 80 -19 295 -5 370 l9
50 13 -93 c7 -51 25 -137 39 -190z m2026 168 c27 -244 -54 -544 -209 -771 -57
-84 -144 -184 -174 -200 -23 -13 -28 -22 61 111 65 97 174 305 169 321 -2 4
-19 -15 -39 -44 -485 -708 -481 -701 -678 -1067 -60 -113 -113 -205 -118 -205
-4 0 -12 12 -17 26 -7 21 5 50 84 195 204 373 245 441 547 897 172 259 236
369 277 477 24 64 59 218 71 313 4 27 9 47 11 44 3 -2 9 -46 15 -97z m-2223
-485 c113 -167 238 -321 365 -447 59 -60 105 -108 102 -108 -3 0 -25 10 -48
21 -79 40 -197 145 -295 262 -75 89 1 -56 82 -158 49 -60 53 -71 19 -47 -39
27 -124 120 -164 179 -44 64 -115 218 -133 289 -14 55 -22 144 -12 133 2 -2
40 -58 84 -124z m2432 31 c-29 -149 -133 -338 -250 -453 -35 -35 -67 -63 -72
-63 -4 0 19 37 53 82 61 83 108 163 91 157 -5 -2 -39 -38 -75 -80 -85 -97
-254 -229 -293 -229 -7 0 40 53 105 118 135 135 252 279 366 448 86 128 97
131 75 20z m-3 -410 c-87 -174 -259 -340 -378 -362 -30 -6 -24 -1 42 44 116
79 112 87 -13 28 -104 -49 -205 -86 -232 -86 -6 0 32 22 85 49 53 26 131 72
174 102 90 62 265 225 322 300 55 73 55 37 0 -75z m-2437 -8 c0 -12 192 -178
255 -222 33 -22 105 -64 160 -93 55 -29 95 -52 89 -53 -24 0 -155 50 -241 94
-51 25 -96 46 -100 46 -13 0 47 -47 110 -87 63 -39 68 -51 13 -33 -124 41
-283 200 -362 365 -51 105 -45 120 21 49 30 -32 54 -62 55 -66z m24 -311 c124
-83 333 -171 520 -217 70 -18 70 -18 26 -19 -52 -1 -188 28 -274 58 -33 12
-61 19 -64 17 -5 -5 80 -50 158 -82 43 -18 49 -23 29 -24 -84 -1 -289 94 -376
174 -54 49 -103 114 -103 136 0 13 4 11 84 -43z m2406 45 c0 -4 -16 -31 -35
-60 -39 -56 -105 -113 -187 -160 -65 -37 -220 -92 -256 -91 l-27 0 25 11 c63
28 166 80 174 89 6 5 -2 5 -20 0 -166 -50 -219 -62 -284 -66 l-75 -5 110 29
c187 50 373 130 495 215 66 45 80 52 80 38z m-2035 -400 c77 -17 187 -38 244
-46 57 -8 106 -18 109 -21 8 -8 -106 -5 -183 5 -178 23 -168 24 -95 -6 84 -33
87 -38 20 -29 -70 9 -200 50 -265 82 -57 29 -135 83 -135 93 0 4 37 -5 83 -20
45 -15 145 -42 222 -58z m1870 68 c-51 -56 -200 -124 -338 -155 -99 -22 -117
-15 -38 14 35 12 61 25 58 27 -3 3 -52 -2 -110 -10 -113 -17 -232 -21 -207 -7
8 5 44 12 80 15 109 12 360 67 460 101 117 40 117 40 95 15z m-1600 -220 c-20
-33 -277 -47 -365 -19 -43 13 -38 14 135 19 99 3 193 7 208 8 16 1 26 -2 22
-8z m1305 0 c159 -1 169 -11 30 -30 -118 -16 -273 0 -305 32 -7 7 13 9 60 4
39 -3 135 -6 215 -6z m-1255 -116 c-48 -36 -205 -68 -220 -44 -4 6 8 10 27 11
18 0 71 11 118 23 47 13 87 24 90 25 3 0 -4 -6 -15 -15z m1041 -19 c36 -8 79
-15 95 -15 20 0 28 -4 23 -11 -11 -18 -112 -4 -176 24 -57 26 -81 45 -33 27
14 -5 55 -16 91 -25z m-931 -25 c-7 -11 -71 -30 -104 -30 -40 0 -14 14 47 26
31 6 58 12 60 13 2 0 1 -3 -3 -9z m782 -7 c47 -6 69 -23 30 -23 -29 0 -88 19
-102 33 -7 7 -4 8 10 3 10 -4 39 -10 62 -13z m-712 -63 c-3 -5 -23 -10 -43 -9
-33 1 -34 2 -12 9 36 12 62 12 55 0z m635 0 c23 -7 22 -8 -10 -9 -19 0 -42 4
-50 9 -12 8 -10 10 10 9 14 -1 36 -5 50 -9z m-486 -255 c5 -20 -4 -39 -46 -94
-29 -38 -91 -143 -137 -233 -96 -187 -154 -279 -203 -326 -39 -37 -46 -38
-190 -26 -198 15 -337 -82 -338 -237 -1 -29 -2 -31 -11 -15 -16 26 -6 106 18
152 24 49 97 99 163 113 28 6 101 11 161 11 83 0 120 4 146 17 47 22 101 93
169 221 31 59 88 166 127 237 127 235 127 235 141 180z m180 9 c45 -45 -17
-114 -70 -79 -26 17 -33 62 -12 83 17 17 64 15 82 -4z m-144 -84 c0 -13 -113
-171 -118 -165 -17 16 77 175 103 175 8 0 15 -4 15 -10z m267 -38 c41 -62 65
-111 61 -124 -5 -13 -118 141 -118 159 0 27 26 11 57 -35z m-874 -613 c48 -13
102 -61 129 -112 28 -56 22 -140 -14 -195 -32 -47 -114 -92 -170 -92 -130 0
-228 126 -197 252 9 38 23 63 55 94 58 59 119 75 197 53z m1586 -26 c126 -79
119 -278 -12 -346 -141 -73 -297 19 -300 177 -3 161 171 256 312 169z m-1509
-377 c-21 -27 -97 -49 -146 -43 -71 8 -78 26 -8 21 42 -3 73 1 109 14 28 11
52 20 54 21 2 0 -2 -6 -9 -13z m1293 -3 c21 -11 57 -17 105 -17 60 -1 69 -3
55 -13 -34 -25 -135 -10 -184 28 -30 23 -18 24 24 2z"/>
<path d="M3131 2826 l-53 -54 17 -26 c10 -15 24 -30 32 -34 22 -13 19 -539 -3
-564 -15 -16 -14 -19 5 -44 20 -25 21 -35 15 -148 l-6 -121 58 -57 59 -57 78
74 77 74 -42 -2 c-55 -3 -68 21 -68 129 0 67 4 86 21 108 l20 26 -21 27 c-21
27 -21 34 -19 319 l3 292 -48 56 c-27 31 -54 56 -60 56 -6 0 -36 -24 -65 -54z"/>
<path d="M4822 2824 l-53 -55 35 -40 36 -39 0 -295 0 -295 100 -50 c55 -27
107 -50 115 -50 9 0 50 20 93 45 42 25 80 45 84 45 5 0 8 -51 8 -114 l0 -114
-37 -5 c-31 -3 -55 4 -126 40 l-88 45 -57 -53 c-31 -30 -58 -56 -60 -59 -1 -3
45 -32 103 -64 l104 -58 38 24 c21 12 92 49 158 80 l120 58 3 112 c2 96 6 116
23 134 19 21 19 21 -1 39 -19 17 -20 30 -20 314 l0 296 -56 59 -55 59 -55 -54
c-30 -29 -54 -59 -54 -65 0 -7 14 -24 30 -38 l30 -25 -2 -278 -3 -278 -48 -8
c-42 -7 -57 -4 -105 18 -95 44 -89 18 -86 333 l2 277 -55 58 c-30 31 -58 57
-61 56 -4 0 -31 -25 -60 -55z"/>
<path d="M6194 2852 c-50 -35 -197 -123 -251 -151 l-43 -21 0 -254 c0 -239 -1
-254 -20 -271 -19 -18 -19 -18 0 -45 18 -25 20 -46 20 -237 l1 -210 54 -53 54
-53 59 54 59 54 -34 32 -33 32 0 184 c0 172 1 185 20 202 l20 18 -20 22 c-13
14 -20 35 -20 63 l0 42 78 0 c78 0 78 0 117 40 21 21 42 37 47 34 4 -3 8 -38
8 -78 0 -57 -4 -79 -19 -98 -19 -24 -19 -25 0 -54 17 -26 19 -48 19 -206 0
-98 2 -178 4 -178 9 0 146 82 147 88 1 4 2 68 4 144 2 105 6 141 19 159 14 21
14 24 -2 42 -15 17 -17 49 -17 314 0 253 -2 297 -15 304 -147 80 -204 109
-210 109 -4 0 -25 -12 -46 -28z m46 -145 l65 -32 3 -124 c5 -184 15 -171 -128
-171 l-120 0 0 170 c0 150 2 170 18 179 32 19 95 11 162 -22z"/>
<path d="M8004 2825 l-59 -52 38 -42 37 -41 -6 -263 c-5 -215 -9 -265 -22
-280 -14 -16 -14 -19 4 -31 18 -13 19 -29 19 -234 l1 -220 49 -51 c27 -28 54
-51 59 -51 6 0 35 23 64 52 l53 51 -33 34 -32 34 -1 184 c0 172 1 185 20 199
19 14 19 15 2 34 -23 26 -29 128 -8 142 40 24 79 20 155 -14 l76 -35 0 -40 c0
-31 -5 -43 -21 -52 l-21 -11 21 -22 c19 -20 21 -34 21 -154 l0 -131 54 -58 53
-57 70 62 c105 93 118 113 55 90 -27 -10 -34 -9 -51 7 -19 16 -21 30 -21 120
0 89 2 104 20 120 l20 18 -20 22 c-16 18 -20 35 -20 98 l0 77 -57 28 c-32 15
-58 32 -58 39 0 12 88 73 105 73 6 0 10 60 10 150 l0 150 -111 55 c-124 60
-111 60 -204 -1 -81 -53 -94 -53 -152 4 l-51 50 -58 -53z m346 -120 c68 -34
70 -37 71 -73 1 -64 -2 -207 -5 -209 -1 -2 -16 3 -33 9 -28 11 -36 8 -114 -40
l-84 -52 -7 25 c-3 13 -5 84 -4 157 5 222 2 206 34 211 59 9 75 6 142 -28z"/>
<path d="M9112 2825 l-53 -54 36 -39 35 -39 0 -263 c0 -226 -2 -266 -16 -281
-14 -16 -14 -20 1 -43 14 -22 17 -49 16 -152 l-1 -126 32 -35 c18 -19 45 -43
59 -53 l26 -19 73 74 74 74 -36 -5 c-54 -9 -68 18 -68 132 0 74 4 96 18 114
18 23 18 24 0 42 -17 17 -18 40 -18 319 l0 300 -51 55 c-29 30 -57 54 -63 54
-6 -1 -35 -25 -64 -55z"/>
<path d="M9827 2823 l-58 -56 35 -36 36 -37 0 -262 c0 -252 -1 -263 -21 -283
l-21 -21 21 -22 c19 -20 21 -34 21 -152 l0 -130 55 -54 54 -54 55 50 c29 27
54 54 55 59 1 6 -12 22 -29 37 -30 26 -30 27 -30 129 0 80 4 106 16 120 15 16
15 20 0 41 -14 19 -16 62 -16 300 l0 277 53 6 c49 6 61 3 126 -30 l73 -36 -3
-249 c-4 -227 -6 -250 -23 -269 -19 -21 -19 -22 2 -44 21 -22 22 -32 20 -150
l-3 -128 57 -56 57 -57 57 57 56 58 -26 20 c-33 26 -46 77 -42 167 3 51 9 79
21 92 16 17 15 20 -4 47 -21 28 -22 37 -18 296 2 146 6 270 10 273 4 4 24 10
44 13 31 5 53 0 115 -29 l78 -35 1 -60 c1 -33 1 -147 1 -253 -1 -162 -3 -197
-16 -211 -20 -22 -20 -38 0 -49 14 -8 16 -29 15 -141 l-1 -133 56 -54 57 -54
41 37 c23 20 58 54 79 75 l37 38 -39 -6 c-34 -6 -41 -3 -56 20 -24 36 -18 205
8 233 16 19 16 21 -3 38 -19 17 -20 30 -20 316 l0 297 -113 57 -113 56 -84
-51 c-47 -27 -93 -50 -103 -50 -10 0 -63 23 -118 51 l-99 51 -92 -56 -93 -55
-55 54 -55 54 -58 -56z"/>
<path d="M3758 2809 l-57 -59 185 0 c113 0 183 -4 179 -9 -3 -6 -30 -24 -60
-41 l-55 -31 0 -248 c0 -234 -1 -249 -20 -266 -19 -17 -19 -18 0 -43 18 -22
20 -40 20 -156 l0 -132 55 -54 55 -55 83 84 c45 46 72 78 60 72 -32 -16 -58
-14 -76 7 -24 27 -24 207 -1 233 15 17 15 20 0 43 -14 22 -16 64 -16 311 l0
285 93 0 92 0 58 56 c31 31 57 58 57 60 0 2 -134 3 -297 3 l-298 -1 -57 -59z"/>
<path d="M6938 2809 l-57 -59 187 0 c129 0 183 -3 176 -10 -14 -14 -74 -49
-96 -56 -17 -6 -18 -27 -18 -254 0 -233 -1 -248 -20 -270 -11 -13 -20 -26 -20
-30 0 -4 9 -15 20 -25 18 -16 20 -31 20 -149 l0 -132 55 -54 55 -55 82 82 c80
80 81 82 45 71 -33 -10 -40 -9 -57 8 -16 16 -20 35 -22 116 -1 82 1 100 17
118 17 19 17 21 2 38 -15 16 -17 53 -17 310 l0 292 93 0 93 0 59 60 59 60
-299 -1 -300 -1 -57 -59z"/>
<path d="M11357 2813 l-56 -58 249 -3 c138 -1 250 -5 250 -7 0 -6 -180 -357
-186 -364 -2 -2 -27 -3 -56 -2 -47 1 -56 -2 -82 -30 -16 -17 -40 -38 -53 -46
-45 -30 -29 -43 52 -43 41 0 75 -4 75 -8 0 -5 -59 -124 -131 -265 l-130 -257
298 0 298 0 58 56 c31 31 57 57 57 58 0 1 -111 3 -247 4 -136 1 -249 5 -252 7
-5 5 -4 6 116 238 l87 167 40 0 c36 1 49 8 105 60 l64 60 -72 0 c-70 0 -86 9
-63 36 5 5 16 28 25 51 9 23 57 119 107 213 49 94 90 175 90 179 0 4 -132 8
-294 10 l-293 2 -56 -58z"/>
<path d="M100 1870 c18 -35 161 -175 199 -194 17 -9 31 -21 31 -27 0 -17 -67
-114 -117 -169 -26 -29 -39 -50 -30 -50 34 0 142 99 183 168 24 42 39 36 118
-43 45 -44 79 -69 117 -83 l54 -20 -30 -13 c-63 -28 -144 -90 -218 -169 -68
-72 -88 -100 -73 -100 3 0 52 25 109 55 57 30 111 55 120 55 13 0 17 -9 17
-37 1 -47 22 -107 47 -135 26 -29 87 -58 123 -58 89 0 152 100 104 168 -21 30
-34 28 -25 -5 10 -34 5 -51 -22 -80 -31 -34 -72 -30 -113 11 -43 43 -46 98 -9
161 21 37 32 44 83 59 85 24 184 22 207 -4 52 -57 -12 -321 -120 -498 -32 -51
-22 -53 33 -7 86 74 171 231 248 460 l43 130 -79 16 c-46 8 -92 24 -109 37
-24 17 -44 22 -98 22 -163 1 -303 48 -370 124 -31 35 -53 48 -118 71 -121 41
-198 79 -241 116 -21 19 -48 41 -58 49 -18 14 -19 14 -6 -10z"/>
<path d="M2770 1849 c-52 -46 -172 -107 -278 -140 -57 -18 -77 -30 -87 -49
-40 -78 -212 -139 -392 -140 -42 0 -75 -5 -79 -11 -11 -18 -85 -47 -141 -54
-29 -4 -53 -11 -53 -16 0 -5 16 -60 36 -122 68 -211 177 -410 260 -473 42 -33
54 -26 25 15 -61 85 -141 322 -141 417 0 56 17 93 48 101 41 10 170 -4 210
-24 48 -24 87 -97 78 -147 -8 -44 -66 -96 -106 -96 -51 0 -92 84 -58 118 13
13 0 16 -19 4 -42 -27 -32 -114 18 -156 78 -66 212 4 238 124 6 28 11 60 11
71 0 17 15 12 121 -42 67 -33 123 -58 125 -56 2 2 -23 35 -55 74 -61 72 -155
149 -224 185 l-39 20 51 23 c28 13 82 53 120 89 39 37 74 66 79 66 5 0 26 -25
47 -55 44 -64 90 -107 145 -135 22 -11 40 -19 40 -17 0 2 -20 26 -45 53 -25
27 -64 78 -87 113 -35 54 -39 64 -26 72 75 42 228 190 228 220 0 13 0 13 -50
-32z"/>
<path d="M3485 1334 l-50 -34 -5 -93 c-3 -50 -3 -116 -1 -145 3 -49 6 -55 36
-69 31 -15 35 -14 84 12 77 43 74 32 72 217 l-1 108 -40 20 c-21 11 -41 20
-42 19 -2 -1 -25 -16 -53 -35z m57 -28 c16 -11 18 -31 17 -150 0 -146 -1 -148
-52 -125 -24 11 -25 14 -26 141 -1 71 1 134 5 139 8 13 36 11 56 -5z"/>
<path d="M3875 1351 c-14 -16 -15 -24 -6 -35 8 -9 11 -58 9 -152 l-3 -139 -29
2 c-16 1 -34 7 -39 12 -5 5 -10 71 -10 148 0 109 -3 142 -15 156 -18 21 -36
22 -51 3 -8 -10 -9 -16 -1 -21 6 -4 10 -60 9 -151 0 -79 3 -148 6 -154 3 -6
20 -17 38 -26 29 -15 33 -15 64 1 30 17 34 17 51 2 16 -14 19 -14 41 2 19 15
21 19 8 24 -13 5 -15 31 -16 159 -1 133 -3 155 -19 171 -18 17 -19 17 -37 -2z"/>
<path d="M4163 1349 c-27 -17 -32 -18 -43 -4 -16 19 -34 19 -50 0 -9 -11 -10
-19 -1 -28 7 -9 11 -73 10 -180 0 -166 7 -207 35 -207 23 0 40 28 27 43 -6 9
-10 50 -9 105 2 89 3 92 26 92 49 0 58 -13 60 -92 3 -89 17 -109 57 -82 22 14
24 19 11 26 -12 7 -15 25 -15 80 1 63 -2 74 -22 89 l-22 17 21 13 c18 11 22
23 22 61 0 45 -2 49 -38 67 -38 19 -38 19 -69 0z m32 -41 c20 -9 25 -18 25
-50 0 -29 -4 -38 -17 -38 -10 0 -27 -7 -37 -15 -27 -20 -36 -10 -36 40 0 75
12 87 65 63z"/>
<path d="M4915 1350 c-13 -15 -15 -23 -7 -33 8 -9 12 -74 11 -186 0 -172 5
-201 36 -201 22 0 39 28 26 44 -7 8 -11 49 -10 105 2 91 2 91 28 91 47 0 55
-13 59 -92 4 -87 20 -112 52 -83 13 12 17 22 10 30 -5 6 -9 42 -9 80 1 60 -2
71 -22 86 l-22 17 21 13 c18 11 22 23 22 61 0 45 -2 49 -38 67 -38 19 -39 19
-68 1 -28 -19 -29 -19 -50 0 -21 20 -21 20 -39 0z m120 -42 c20 -9 25 -18 25
-50 0 -29 -4 -38 -17 -38 -10 0 -27 -7 -37 -15 -32 -24 -36 -18 -36 43 0 76
10 85 65 60z"/>
<path d="M5676 1349 c-27 -16 -31 -16 -62 -1 -29 13 -39 14 -73 2 -33 -11 -43
-11 -56 0 -22 18 -55 -11 -37 -33 8 -9 11 -64 10 -162 -1 -132 1 -150 17 -162
16 -11 21 -10 37 4 12 10 15 20 9 27 -5 6 -10 75 -10 154 -1 137 -1 142 20
142 11 0 29 -5 40 -10 17 -10 19 -22 18 -152 0 -130 1 -143 20 -162 18 -18 23
-19 35 -6 10 12 12 34 7 98 -3 45 -5 116 -3 157 4 80 9 85 56 63 l26 -11 -1
-139 c-1 -120 2 -142 17 -159 16 -18 18 -18 36 -3 13 13 15 20 7 30 -6 7 -10
33 -9 56 2 24 2 89 1 145 l-1 103 -37 18 c-37 19 -39 19 -67 1z"/>
<path d="M6678 1332 l-58 -37 -1 -90 c-2 -156 1 -188 19 -202 36 -27 60 -26
116 9 63 38 63 37 58 210 l-3 107 -35 20 c-19 12 -36 21 -37 21 -1 0 -28 -17
-59 -38z m56 -24 l26 -11 -1 -134 c-1 -148 -7 -161 -58 -132 -28 16 -28 14
-22 229 1 65 7 70 55 48z"/>
<path d="M7354 1350 c-28 -18 -33 -19 -44 -5 -16 19 -34 19 -50 0 -9 -11 -10
-19 -1 -28 7 -9 11 -74 10 -182 0 -156 2 -170 21 -189 18 -18 21 -19 35 -5 13
12 14 21 5 43 -6 16 -9 62 -7 105 4 68 6 76 25 79 45 7 59 -12 61 -85 2 -84
20 -111 58 -86 21 14 22 18 9 25 -12 7 -15 25 -15 80 1 63 -2 74 -22 89 l-22
17 21 13 c18 11 22 23 22 60 0 43 -3 49 -36 68 -19 12 -36 21 -37 21 -1 0 -16
-9 -33 -20z m39 -44 c11 -8 17 -27 17 -50 0 -27 -4 -36 -17 -36 -10 0 -27 -7
-37 -15 -10 -8 -23 -12 -27 -9 -10 6 -12 68 -3 102 7 25 39 29 67 8z"/>
<path d="M7838 1332 c-56 -36 -58 -39 -56 -78 1 -39 3 -42 68 -78 l67 -38 2
-53 c2 -59 -12 -72 -54 -53 -19 9 -25 19 -25 45 0 38 -2 39 -35 17 -36 -23
-31 -71 10 -95 40 -25 47 -24 104 13 41 28 50 39 54 70 8 58 0 70 -66 108 -61
35 -62 36 -65 83 -3 42 -1 47 18 47 33 0 60 -19 60 -40 0 -23 8 -25 33 -6 28
22 21 52 -19 75 -19 12 -36 21 -37 20 -1 0 -28 -17 -59 -37z"/>
<path d="M8348 1333 l-58 -35 -1 -92 c-1 -50 0 -95 1 -101 1 -5 3 -28 4 -49 1
-32 8 -43 36 -62 l34 -23 33 20 c31 20 35 20 46 5 11 -15 14 -15 34 -1 20 14
22 23 20 91 l-2 76 -37 22 -37 21 -21 -21 -21 -21 29 -12 c27 -11 29 -17 31
-66 1 -50 -1 -55 -23 -61 -13 -3 -34 -1 -45 6 -20 10 -21 19 -21 150 0 135 1
140 21 140 32 0 59 -19 59 -40 0 -21 8 -24 34 -14 9 4 16 18 16 34 0 22 -8 33
-36 49 -19 12 -36 21 -37 20 -1 0 -28 -17 -59 -36z"/>
<path d="M8702 1353 c-19 -14 -26 -14 -48 -3 -21 12 -27 11 -41 -3 -13 -12
-14 -19 -5 -30 8 -9 12 -62 11 -157 0 -132 1 -145 20 -164 20 -19 22 -19 38
-4 12 13 13 21 6 30 -7 8 -11 71 -12 156 l-1 142 26 0 c56 0 64 -13 64 -103 0
-47 -5 -88 -11 -94 -8 -8 -8 -13 0 -17 6 -4 11 -29 11 -55 0 -61 20 -83 50
-56 15 13 17 21 9 31 -6 7 -10 30 -9 51 1 21 2 86 1 145 l-1 108 -40 20 c-46
23 -39 23 -68 3z"/>
<path d="M9003 1333 l-53 -36 -1 -91 c-2 -231 1 -260 28 -270 24 -10 50 19 34
37 -7 9 -11 47 -10 101 l1 86 28 0 c16 0 32 5 35 10 16 26 22 3 24 -82 0 -50
3 -93 5 -95 2 -3 13 0 25 6 23 13 28 55 23 223 l-3 107 -35 20 c-19 12 -38 21
-42 20 -4 0 -31 -16 -59 -36z m62 -25 c23 -10 26 -16 23 -57 l-3 -46 -42 -3
-43 -3 0 54 c0 71 10 80 65 55z"/>
<path d="M10001 1349 c-21 -18 -26 -18 -41 -4 -21 19 -34 19 -50 0 -9 -11 -10
-19 -1 -28 7 -9 11 -75 10 -186 0 -172 5 -201 36 -201 22 0 39 28 26 44 -7 8
-11 50 -10 105 l1 91 26 0 c48 0 56 -13 60 -92 4 -87 20 -112 52 -83 13 12 17
22 10 30 -5 6 -9 42 -9 80 1 60 -2 71 -22 86 l-22 17 21 13 c18 11 22 23 22
61 0 45 -2 49 -40 68 -47 24 -40 24 -69 -1z m34 -41 c20 -9 25 -18 25 -50 0
-29 -4 -38 -17 -38 -10 0 -27 -7 -37 -15 -32 -24 -36 -18 -36 50 0 71 9 79 65
53z"/>
<path d="M10307 1333 l-57 -35 -1 -91 c-1 -159 1 -190 19 -204 36 -27 61 -26
110 6 l47 31 -47 -6 c-65 -9 -78 3 -76 72 1 50 3 54 26 54 13 0 35 9 49 19
l24 20 -48 3 -48 3 -3 53 c-2 40 1 54 13 58 24 10 75 -16 75 -37 0 -22 4 -23
31 -9 33 18 24 57 -19 79 l-38 19 -57 -35z"/>
<path d="M3100 1345 c-10 -12 -10 -19 -2 -27 8 -8 12 -50 12 -113 l0 -101 35
-17 c32 -15 39 -16 65 -2 39 20 40 20 40 -20 0 -44 -17 -52 -60 -30 -31 16
-33 16 -53 -3 l-20 -21 37 -17 c36 -18 37 -18 91 9 63 30 57 10 55 217 -1 88
-4 108 -20 124 -25 26 -55 14 -44 -17 4 -12 8 -62 8 -112 l1 -90 -28 -3 c-49
-6 -57 10 -57 117 0 95 -8 121 -36 121 -6 0 -17 -7 -24 -15z"/>
<path d="M4601 1346 c-16 -19 -5 -24 52 -22 49 1 62 -8 27 -19 -18 -6 -20 -16
-21 -93 -2 -108 1 -182 7 -204 7 -24 35 -31 55 -12 15 14 16 18 4 30 -10 11
-13 47 -12 156 l2 143 32 0 c18 0 40 8 50 18 16 16 12 17 -84 17 -74 0 -104
-4 -112 -14z"/>
<path d="M5250 1345 c-10 -12 -10 -18 0 -30 7 -9 11 -47 10 -107 -3 -156 -1
-193 14 -213 14 -19 15 -19 35 -1 14 12 18 23 12 30 -5 6 -10 76 -10 154 -1
79 -6 152 -11 163 -13 23 -33 25 -50 4z"/>
<path d="M6290 1345 c-10 -12 -10 -19 -2 -27 8 -8 12 -50 12 -113 l0 -101 35
-17 c32 -15 39 -16 65 -2 39 20 40 20 40 -20 0 -44 -17 -52 -60 -30 -25 13
-35 14 -46 4 -22 -18 -17 -34 18 -50 30 -15 34 -14 85 14 60 32 55 12 53 217
-1 90 -4 108 -20 125 -19 18 -21 18 -37 2 -13 -13 -14 -19 -5 -29 8 -8 12 -45
12 -100 0 -74 -3 -89 -18 -97 -12 -7 -26 -6 -43 2 -23 12 -24 18 -27 112 -1
54 -8 105 -14 112 -14 17 -33 16 -48 -2z"/>
<path d="M6930 1345 c-10 -12 -10 -18 0 -30 8 -10 11 -47 10 -112 -4 -193 -5
-192 35 -209 31 -13 39 -13 66 2 23 11 34 13 42 5 6 -6 19 -11 28 -11 21 0 44
26 30 34 -6 4 -10 69 -10 153 -1 131 -3 150 -20 167 -29 29 -54 14 -45 -26 10
-49 7 -279 -5 -291 -7 -7 -20 -6 -40 2 l-30 13 0 146 c-1 143 -7 172 -36 172
-7 0 -18 -7 -25 -15z"/>
<path d="M8090 1345 c-9 -11 -10 -18 -1 -28 7 -9 11 -65 10 -157 0 -131 2
-145 20 -163 20 -20 21 -20 41 -2 17 16 18 20 6 34 -10 12 -14 54 -15 160 -1
87 -6 150 -13 158 -14 17 -33 16 -48 -2z"/>
<path d="M9261 1346 c-16 -19 -5 -24 52 -22 49 1 62 -8 27 -19 -18 -6 -20 -16
-21 -98 -1 -165 1 -191 21 -211 19 -19 20 -19 40 -1 13 11 17 22 11 29 -12 14
-13 38 -12 185 l1 123 24 -6 c16 -4 32 1 47 14 l24 19 -101 1 c-76 0 -105 -4
-113 -14z"/>
<path d="M9571 1346 c-8 -10 -9 -16 -1 -21 6 -4 10 -60 9 -151 0 -155 2 -164
51 -184 25 -10 34 -10 56 5 22 14 30 15 49 5 18 -9 27 -9 45 0 20 11 21 14 8
21 -14 7 -16 34 -17 161 -1 149 -7 178 -36 178 -22 0 -39 -28 -26 -44 8 -9 11
-59 9 -152 l-3 -139 -30 2 c-16 1 -34 9 -40 16 -6 8 -9 71 -9 148 2 108 -1
137 -14 152 -18 21 -36 22 -51 3z"/>
<path d="M5926 1031 c-17 -19 -17 -21 2 -41 l19 -21 16 25 c15 22 15 25 -2 40
-16 15 -19 15 -35 -3z"/>
<path d="M10570 1035 c-17 -20 -5 -45 20 -45 11 0 23 7 26 15 6 15 -11 45 -26
45 -4 0 -13 -7 -20 -15z"/>
</g>
</svg>
